<?xml version="1.0" encoding="UTF-8"?>
<svg id="Layer_2" data-name="Layer 2" xmlns="http://www.w3.org/2000/svg" viewBox="0 0 260.09 270.57">
  <defs>
    <style>
      .cls-1 {
        stroke: #000;
        stroke-miterlimit: 10;
        stroke-width: 4px;
      }
    </style>
  </defs>
  <g id="Layer_1-2" data-name="Layer 1">
    <path d="m113.29,247.5c-1.17-2.43-2.33-6.52-3.5-12.26-7.39,10.12-17.41,15.17-30.06,15.17s-24.2-4.38-32.9-13.13c-8.71-8.75-13.06-20.08-13.06-34,0-16.54,5.28-29.33,15.83-38.37,10.55-9.05,25.75-13.67,45.6-13.86h12.55v-12.69c0-7.1-1.22-12.11-3.65-15.03-2.43-2.92-5.98-4.38-10.65-4.38-10.31,0-15.47,6.03-15.47,18.09h-41.29c0-14.59,5.47-26.63,16.42-36.11,10.94-9.48,24.78-14.23,41.51-14.23s30.71,4.5,40.2,13.5c9.48,9,14.23,21.86,14.23,38.59v74.27c.19,13.62,2.14,24.27,5.84,31.95v2.48h-41.58Zm-24.37-29.47c4.57,0,8.46-.92,11.67-2.77,3.21-1.85,5.59-4.04,7.15-6.57v-32.83h-9.92c-7,0-12.53,2.24-16.56,6.71-4.04,4.48-6.06,10.46-6.06,17.95,0,11.67,4.57,17.51,13.72,17.51Z"/>
    <path d="m178.95,48.77c0-6.42,2.04-11.67,6.13-15.76s9.53-6.13,16.34-6.13,12.26,2.04,16.34,6.13c4.09,4.09,6.13,9.34,6.13,15.76s-2.02,11.58-6.05,15.76c-4.04,4.18-9.51,6.27-16.42,6.27s-12.38-2.09-16.41-6.27c-4.04-4.18-6.06-9.43-6.06-15.76Zm43.33,198.73h-41.44V89.63h41.44v157.87Z"/>
    <g>
      <path class="cls-1" d="m206.87,267.52c.18-.61.3-.98.43-1.44,1.38,0,2.73-.04,4.07,0,5.74.19,11.47.4,17.21.61,1.03.04,1.03.04,1.21,1.3-.51.48-1.14.51-1.81.49-3.65-.11-7.3-.19-10.94-.29-2.95-.08-5.89-.17-8.84-.29-.4-.02-.79-.23-1.33-.39Z"/>
      <path class="cls-1" d="m5.41,207.86c0,1.76.07,3.52-.02,5.27-.13,2.79-.35,5.58-.54,8.36-.02.31.02.69-.12.92-.19.3-.55.68-.83.68-.41,0-.82-.32-.81-.88,0-.68.02-1.36.05-2.03.21-4.78.41-9.56.66-14.34.02-.43.3-.91.59-1.24.1-.12.67.07.9.26.18.15.22.55.23.84.03.72,0,1.44,0,2.16-.04,0-.08,0-.12,0Z"/>
      <path class="cls-1" d="m255.65,46.35c.14,3.02.29,6.04.43,9.06.02.54.05,1.09-.04,1.61-.05.29-.32.7-.55.77-.26.07-.66-.15-.88-.37-.19-.19-.28-.56-.3-.86-.34-4.32-.69-8.64-.51-12.98.03-.72.13-1.44.2-2.16.06-.56.32-.95.89-.95.51,0,.88.54.88,1.15,0,1.58,0,3.15,0,4.73-.04,0-.07,0-.11,0Z"/>
      <path class="cls-1" d="m3.92,78.38c1.25.48,1.24.53,1.2,1.55-.2,4.32-.37,8.65-.56,12.97-.03.63-.08,1.26-.18,1.88-.07.44-.19.92-.75.97-.44.05-1-.46-1.05-1.01-.06-.63-.07-1.26-.04-1.89.17-3.77.32-7.55.56-11.31.07-1.05.09-2.17.81-3.15Z"/>
      <path class="cls-1" d="m255.88,153.28c-.9-.15-1.18-.62-1.14-1.44.11-2.57.18-5.14.26-7.71.08-2.57.14-5.13.22-7.7,0-.31.03-.63.11-.93.11-.39.38-.66.78-.51.29.11.71.34.74.57.11.74.1,1.5.08,2.25-.13,4.33-.28,8.67-.44,13-.03.83.08,1.73-.62,2.47Z"/>
      <path class="cls-1" d="m10.24,265.56c4.63.1,8.76.19,12.9.28.3,0,.66-.04.89.1.26.16.51.49.56.79.08.46-.22.78-.69.8-1.03.04-2.07.06-3.1.04-2.13-.03-4.26-.07-6.39-.13-2.48-.06-4.95-.14-7.43-.22-.45-.02-.89-.13-.94-.73-.04-.56.33-.92,1.03-.93,1.22-.02,2.44,0,3.17,0Z"/>
      <path class="cls-1" d="m256.09,210.26c0-2.3,0-4.6,0-6.9,0-.56.02-1.14.73-1.22.54-.06.99.4,1.03,1.13.1,1.67.21,3.35.23,5.02.03,2.93-.02,5.87-.04,8.81,0,.22,0,.46-.05.67-.11.47-.13,1.1-.79,1.04-.57-.06-.91-.5-.94-1.13-.03-.67-.1-1.35-.1-2.02-.01-1.8,0-3.59,0-5.39-.03,0-.05,0-.08,0Z"/>
      <path class="cls-1" d="m39.63,268.24c-.09-.56-.15-.94-.24-1.51.96-.09,1.81-.24,2.66-.22,4.44.1,8.87-.1,13.29-.42.69-.05,1.39-.05,2.09-.05.46,0,.74.22.74.74,0,.54-.22.84-.77.87-1.83.1-3.65.27-5.48.33-3.52.12-7.04.18-10.56.26-.52.01-1.04,0-1.72,0Z"/>
      <path class="cls-1" d="m3.01,127.69c-.61-.44-.89-.99-.88-1.81.03-2.89-.03-5.78-.03-8.67,0-1.44.04-2.87.1-4.31.02-.57-.02-1.26.84-1.25.54,0,.94.55.96,1.39.04,1.44.06,2.88.06,4.32,0,2.94-.01,5.88,0,8.82,0,.76-.22,1.32-1.04,1.5Z"/>
      <path class="cls-1" d="m4.88,246.96c0,2.39,0,4.79,0,7.18,0,.5.02,1.01-.1,1.48-.06.23-.38.48-.63.54-.17.04-.52-.17-.61-.35-.18-.4-.33-.86-.33-1.29-.06-4.98-.09-9.95.38-14.91.03-.36.02-.76.19-1.05.15-.26.54-.57.79-.54.24.03.45.46.63.73.06.09,0,.26,0,.4-.07,2.6-.15,5.2-.22,7.8-.03,0-.05,0-.08,0Z"/>
      <path class="cls-1" d="m176.28,266.71c1.64,0,3.28,0,4.93,0,3.17-.02,6.33-.05,9.5-.08.61,0,1.22,0,1.83,0,.48,0,.86.1.88.72.02.59-.29.82-.78.88-.78.09-1.55.22-2.33.23-3.22.03-6.43.03-9.65,0-1.22-.01-2.43-.13-3.65-.23-1.04-.09-1.18-.41-.73-1.52Z"/>
      <path class="cls-1" d="m157.29,4.46c-2.08.07-4.15.17-6.23.2-1.69.03-3.38-.02-5.07-.04-.13,0-.26.01-.39,0-.44-.02-.95-.03-1.02-.6-.07-.6.29-.89.86-.95.6-.06,1.2-.22,1.8-.23,4.03-.1,8.07-.19,12.1-.26,1.08-.02,1.37.16,1.43.75.06.6-.23.86-1.27,1-.73.1-1.47.12-2.21.17,0-.01,0-.03,0-.04Z"/>
      <path class="cls-1" d="m117.82,268.48c-2.08,0-4.16,0-6.24,0-.3,0-.61-.03-.91-.04-.5-.02-.87-.24-.87-.79,0-.56.26-.96.86-.98,1.31-.03,2.62-.07,3.92-.07,3.23.01,6.45.05,9.68.09.3,0,.61,0,.91.08.41.1.74.33.68.84-.06.5-.31.85-.85.85-1.22.01-2.44.03-3.66.03-1.17,0-2.35,0-3.52,0,0,0,0,0,0-.01Z"/>
      <path class="cls-1" d="m236.21,4.66c.34-1.04,1.07-1.22,1.89-1.25,3.39-.12,6.78-.24,10.16-.35.65-.02,1.3-.06,1.95-.06.38,0,.79-.02,1.15.1.25.09.58.4.58.63,0,.3-.19.69-.42.9-.2.19-.56.27-.85.28-2.33.07-4.67.09-7,.16-1.95.06-3.9.15-5.85.25-.63.03-1.22.05-1.61-.66Z"/>
      <path class="cls-1" d="m257.29,104.64c0,1.52.04,2.97,0,4.41-.1,2.67-.26,5.33-.39,7.99-.03.72,0,1.44-.05,2.15-.06.89-.39,1.33-.85,1.29-.57-.05-.9-.54-.88-1.44.01-.86.1-1.71.13-2.57.13-3.57.24-7.15.38-10.72.05-1.19.17-1.27,1.67-1.11Z"/>
      <path class="cls-1" d="m192.84,3.2c-.03,1.41-.08,1.52-1.1,1.54-1.78.03-3.56-.02-5.35,0-2.56.04-5.13.12-7.69.16-.46,0-.92-.13-1.35-.19-.14-1.33-.04-1.52,1.03-1.59,1.43-.1,2.85-.2,4.28-.2,2.95,0,5.9.04,8.85.09.42,0,.84.12,1.32.2Z"/>
      <path class="cls-1" d="m159.98,267.06c.5,1.15.34,1.52-.8,1.5-2.69-.03-5.37-.13-8.06-.22-1.78-.06-3.55-.15-5.33-.24-.26-.01-.52-.02-.77-.06-.47-.09-.84-.32-.75-.9.08-.5.35-.8.89-.78.74.03,1.48-.02,2.22.01,4.12.19,8.24.4,12.35.6.08,0,.16.05.24.08Z"/>
      <path class="cls-1" d="m255.14,79.85c0-1.45-.06-2.9.02-4.34.06-1.1.42-1.48,1.02-1.45.59.03.67.36.67,1.62,0,2.34.06,4.69.12,7.03.04,1.88.12,3.76.17,5.64,0,.22.05.5-.05.66-.17.27-.42.63-.67.67-.26.04-.66-.2-.83-.44-.19-.27-.23-.67-.25-1.02-.15-2.79-.27-5.58-.4-8.37.07,0,.14,0,.21,0Z"/>
      <path class="cls-1" d="m84.77,268.03c-2.3,0-4.6,0-6.9,0-.26,0-.52-.03-.78-.05-.45-.04-.82-.28-.71-.76.08-.32.4-.69.69-.82.38-.16.86-.14,1.29-.13,4.31.01,8.63.04,12.94.06.44,0,.87.04,1.31.05.54.02.8.36.79.88-.01.51-.38.68-.81.7-.83.04-1.65.07-2.48.07-1.78.01-3.56,0-5.35,0,0,0,0,0,0-.01Z"/>
      <path class="cls-1" d="m257.34,176.47c.07,2.83.14,5.66.21,8.5,0,.31-.05.63,0,.94.08.63-.24.94-.76,1.05-.49.1-.91-.34-.96-1.02-.11-1.39-.25-2.79-.24-4.18.02-2.85.14-5.69.22-8.54,0-.23,0-.46.04-.68.09-.46.23-.9.79-.92.54-.02.97.39.96,1.06-.01,1.26-.1,2.52-.16,3.78-.03,0-.06,0-.1,0Z"/>
      <path class="cls-1" d="m255.71,244.71c0-1.67,0-3.11,0-4.56,0-.27.02-.54.04-.81.04-.46.22-.75.72-.78.52-.02.74.3.78.73.09.95.13,1.9.17,2.85.08,1.9.14,3.8.22,5.7.07,1.85.16,3.7.22,5.55.02.79-.23,1.13-.79,1.14-.7.01-.85-.48-.88-1.08-.16-2.98-.33-5.96-.48-8.73Z"/>
      <path class="cls-1" d="m3.01,54.29c0-1.49,0-2.97,0-4.46,0-.36-.06-.76.06-1.07.13-.33.4-.77.68-.83.43-.08.84.23.94.74.1.53.17,1.07.19,1.61.14,3.64.27,7.28.41,10.91.02.53,0,1.06-.53,1.23-.26.08-.68-.09-.91-.29-.19-.16-.27-.54-.28-.83-.14-2.34-.26-4.68-.38-7.02-.05,0-.11,0-.16,0Z"/>
      <path class="cls-1" d="m4.27,188.04c-1.38-.03-1.49-.11-1.5-1.14-.02-4.02-.03-8.05-.04-12.07,0-.14-.05-.31.02-.4.24-.34.46-.76.8-.93.37-.19,1.01.42,1.07.94.05.49.02.99.02,1.49-.01,3.56-.02,7.11-.06,10.67,0,.47-.19.94-.3,1.44Z"/>
      <path class="cls-1" d="m3.88,153.23c0,2.11-.01,4.22,0,6.33,0,.54-.22.9-.66,1.03-.52.15-.8-.27-.96-.7-.12-.33-.18-.7-.19-1.05-.13-3.79-.15-7.58.34-11.35.04-.31.09-.63.15-.93.08-.39.3-.75.7-.59.25.1.53.49.55.76.06,1.03,0,2.08,0,3.11,0,1.13,0,2.26,0,3.39.02,0,.04,0,.07,0Z"/>
      <path class="cls-1" d="m120.1,4.67c-1.74,0-3.48,0-5.22,0-.26,0-.53.05-.78,0-.38-.08-.81-.2-.8-.73,0-.5.27-.86.74-1,.2-.06.43-.04.65-.05,3.53-.11,7.05-.22,10.58-.33.35-.01.7,0,1.05.03.53.06.79.46.74.94-.03.28-.34.57-.58.77-.15.12-.41.1-.62.1-1.92,0-3.83,0-5.75,0,0,.09,0,.18,0,.27Z"/>
      <path class="cls-1" d="m243.56,267.92c-.17-1.31-.07-1.5.92-1.49,2.04.03,4.08.09,6.13.18,2.09.09,4.17.22,6.25.33.22.01.52-.04.63.09.24.27.51.62.55.96.05.46-.38.54-.75.53-1.09-.03-2.17-.06-3.26-.11-3.47-.15-6.93-.31-10.47-.48Z"/>
      <path class="cls-1" d="m205.39,5.48c.43-1.42.5-1.54,1.45-1.57,3.65-.11,7.31-.2,10.96-.28.53-.01,1.1.04,1.21.75.09.59-.42,1-1.22,1.07-.17.01-.35.02-.52.02-1.61,0-3.22,0-4.82.03-1.73.04-3.46.15-5.2.18-.58.01-1.16-.12-1.86-.2Z"/>
      <path class="cls-1" d="m61.83,4.67c-1.74,0-3.47.01-5.21-.01-.28,0-.63-.06-.83-.24-.44-.41-.22-1.18.37-1.37.33-.11.68-.17,1.02-.17,3.43.07,6.86.17,10.29.25.5.01.87.2.91.75.05.59-.28.96-.84.98-.86.04-1.73.01-2.59.01-1.04,0-2.08,0-3.12,0,0-.07,0-.13,0-.2Z"/>
      <path class="cls-1" d="m4.44,27.36c0,1.29,0,2.58,0,3.86,0,.22-.05.45-.08.67-.09.53-.13,1.14-.87,1.09-.52-.03-.93-.6-.92-1.27.02-1.62.06-3.24.11-4.86.05-1.66.1-3.32.16-4.97,0-.27-.06-.61.07-.79.18-.26.49-.5.78-.57.39-.08.65.21.68.64.06.94.13,1.88.16,2.82.03,1.12,0,2.25,0,3.37-.03,0-.05,0-.08,0Z"/>
      <path class="cls-1" d="m93.84,5.18c-2.11.17-4.23.35-6.34.53-.17.01-.35.07-.52.06-.48-.05-.84-.28-.88-.81-.04-.53.24-.87.73-.95.73-.13,1.46-.26,2.19-.3,2.55-.13,5.1-.25,7.66-.31,1.13-.03,1.6.29,1.64.9.04.62-.57.95-1.74.94-.91,0-1.82,0-2.73,0,0-.01,0-.03,0-.04Z"/>
      <path class="cls-1" d="m43.23,3.95c-1.3.02-2.55.06-3.79.05-2.76-.02-5.52-.07-8.27-.11-.09-1.31.02-1.53.94-1.62,1.26-.12,2.52-.22,3.78-.2,2.13.03,4.25.14,6.38.23,1.02.05,1.06.12.96,1.64Z"/>
      <path class="cls-1" d="m4.6,4.2c-.14-1.48-.15-1.57.78-1.64,3.08-.23,6.17-.4,9.25-.55.68-.03.68.04,1.12,1.04-.31.62-.88.66-1.45.68-1.83.08-3.65.13-5.48.22-1.39.07-2.77.17-4.22.26Z"/>
      <path class="cls-1" d="m255.95,20.47c0,1.89,0,3.78,0,5.66,0,.45-.07.9-.14,1.34-.07.47-.33.72-.82.64-.42-.07-.57-.34-.58-.76-.04-1.35-.09-2.7-.13-4.05-.05-2.03-.09-4.06-.13-6.09,0-.26-.04-.58.08-.78.14-.23.43-.49.66-.49.22,0,.55.27.64.5.16.41.21.88.23,1.32.03.9,0,1.8,0,2.7.07,0,.13,0,.2,0Z"/>
    </g>
  </g>
</svg>