<?xml version="1.0" encoding="UTF-8"?>
<svg id="Layer_2" data-name="Layer 2" xmlns="http://www.w3.org/2000/svg" viewBox="0 0 349.08 255.34">
  <defs>
    <style>
      .cls-1 {
        fill: #060606;
      }

      .cls-2 {
        fill: #fff;
      }

      .cls-3 {
        fill: #b2b3b9;
      }

      .cls-4 {
        fill: #ab141e;
      }
    </style>
  </defs>
  <g id="Layer_1-2" data-name="Layer 1">
    <path class="cls-1" d="m59.22,164.74c.06-9.34.19-18.68.16-28.01-.02-4.32-.3-8.64-.56-12.96-.12-1.97-1.8-2.05-3.18-2.06-3.09,0-6.17.34-9.26.27-2.8-.06-5.6-.38-8.38-.75-1.57-.21-3.1-.79-4.65-1.14-2.65-.61-3.74-2.13-3.75-4.99-.01-3.36-.29-6.72-.21-10.07.06-2.58.55-5.14.7-7.72.07-1.22-.34-2.45-.33-3.68.03-3.24.25-6.48.24-9.72,0-3.42-.29-6.83-.27-10.25,0-1.71.5-3.42.62-5.13.09-1.28-.05-2.57-.11-3.85-.09-2.12-.24-4.25-.29-6.37-.02-1.1.08-2.21.19-3.31.26-2.58,1.41-3.66,3.99-3.86,4.87-.38,9.74-.85,14.62-1.14,2.72-.16,5.47-.18,8.19.01,1.4.1,1.51-.52,1.52-1.5.02-3.7.05-7.39.04-11.09,0-5.41,0-10.83-.07-16.24-.05-3.3-.28-6.6-.35-9.9-.05-2.38.52-4.72-.3-7.14-.46-1.35,1.73-3.25,3.23-3.26,1.88-.02,3.85.6,5.57-.77.2-.16.82-.15.95.01,1.75,2.25,3.96.64,5.95.76,2.42.15,4.85.34,7.28.37,4.73.06,9.47.02,14.2.02,3.34,0,6.68-.04,10.02.02,4.14.08,8.29.34,12.43.35,3.49,0,6.99-.34,10.48-.33,4.48.01,8.96.22,13.44.36,4.01.12,8.01.34,12.02.36,12.79.08,25.59.1,38.38.13,2.41,0,4.82-.12,7.22-.09,7.68.11,15.36.3,23.04.41,3.52.05,7.04-.06,10.56,0,9.2.17,18.39.43,27.59.57,3.49.05,6.98-.21,10.47-.18,5.88.06,11.75.3,17.63.36,2.47.02,4.96-.17,7.43-.37,3.1-.24,6.2.98,6.86,3.06.37,1.14.34,2.43.35,3.66.04,4.39-.08,8.78.05,13.17.11,3.72.48,7.43.69,11.15.03.56-.32,1.13-.31,1.7.03,1.87-.9,3.84.6,5.57.18.2.24.67.13.93-1.48,3.62-.59,7.22-.02,10.85.16,1.05-.32,2.18-.29,3.27.16,5.62.39,11.25.61,16.87.06,1.56.18,3.12.27,4.69-.85,2.78-.21,3.9,1.96,3.43,2.69-.02,5.38.02,8.07-.07,3.59-.12,7.18-.37,10.78-.5.76-.03,1.68.02,2.24.42.68.48,1.44,1.35,1.51,2.11.29,3.17.29,6.36.47,9.54.14,2.54.5,5.07.57,7.61.08,3.04-.09,6.08-.06,9.12.02,2.35.2,4.71.28,7.06.14,4.14.28,8.28.37,12.43.05,2.27-.16,4.56.09,6.8.22,1.98-.44,3.15-2.3,3.4-2.27.31-4.57.35-6.86.48-1.5.09-3,.13-4.5.18-2.96.09-5.92.29-8.87.21-2.45-.07-2.66-.04-2.65,2.34.01,3.24.02,6.49.07,9.73,0,.36.24.72.38,1.08.09,1.21.17,2.41.26,3.62.01.26.03.52.04.78,0,1.2,0,2.4,0,3.6-.01,1.19-.02,2.38-.04,3.57,0,.81,0,1.61,0,2.42.03,2.99.05,5.97.11,8.96.12,6.34.25,12.69.39,19.03.12,5.32.28,10.65.37,15.97.02,1.1.36,1.52,1.5,1.51,5.51-.05,11.02.19,16.52-.09,6.99-.35,13.96.35,20.94.09,1.28-.05,2.76.4,2.86,2.04.11,1.93-.93,2.68-2.95,2.71-3.38.06-6.76.31-10.14.34-1.89.02-3.79-.34-5.68-.32-3.21.03-6.43.32-9.64.32-3.68,0-7.37-.22-11.05-.34-.59-.02-1.18,0-1.86,0,0,3.58-.03,7.05,0,10.51.09,8.26.23,16.53.28,24.79,0,.57-.51,1.14-.79,1.71-.76.31-1.5.8-2.29.89-1.2.14-2.44,0-3.66-.03-4.11,0-8.22.05-12.33-.03-2.89-.06-5.77-.37-8.66-.42-3.51-.07-7.02,0-10.53.02-.13,0-.31.06-.39,0-1.9-1.57-3.99-.22-5.98-.33-4.58-.26-9.19-.03-13.79-.08-9.49-.1-18.98-.25-28.47-.38-.92-.13-1.84-.35-2.77-.37-2.62-.06-5.24-.11-7.85-.04-1.91.05-3.82.29-5.73.45-3.39-.02-6.78,0-10.16-.07-4.18-.08-8.37-.15-12.55-.35-2.83-.14-5.65-.64-8.49-.72-2.83-.07-5.67.25-8.51.27-1.98.02-3.95-.22-5.93-.28-1.64-.04-3.28.04-4.92.02-.93,0-1.86-.12-2.8-.13-2-.01-3.99.05-5.99,0-4-.1-8.01-.31-12.01-.36-5.37-.07-10.73.06-16.1-.06-2.77-.06-5.52-.51-8.29-.72-.55-.04-1.15.15-1.68.36-2.99,1.16-5.99-.48-8.99.09-1.05.2-2.14.21-3.21.28-.4.03-.84.11-1.19-.02-2.48-.96-5.02-.47-7.56-.44-2.29.03-4.59-.24-6.89-.3-2.37-.06-4.73.03-7.1-.04-2-.06-4-.3-6-.34-1.09-.02-2.17.32-3.26.33-2.57.04-3.51-.77-3.5-3.24.02-4.34.25-8.68.29-13.02.05-5.91.01-11.82.01-17.95-4.54,0-8.68,0-12.83,0-.79,0-1.58-.02-2.37-.02-2.45,0-4.91-.02-7.36-.02-6.37,0-12.74,0-19.1,0-5.17,0-10.35-.12-15.51.04-2.1.06-2.25-1.56-2.79-2.7-.16-.34,1.09-1.4,1.74-2.08.84-.88,1.74-.81,2.67-.09.17.13.54.13.77.05,3.3-1.13,6.58.34,9.91.07,6.54-.54,13.11.07,19.67-.04,6.7-.11,13.41,0,20.12-.05,1.55-.01,3.09-.33,4.55-.5-.06-1.29-.12-2.58-.18-3.86,0-.4,0-.8,0-1.2-.01-.4-.02-.8-.03-1.19.04-1.13.1-2.26.1-3.39,0-1.8-.04-3.59-.06-5.39,0-.8,0-1.59,0-2.39,0-.27,0-.53,0-.8,0-2.66,0-5.31,0-7.97,0-.53,0-1.06,0-1.59,0-2.13,0-4.26,0-6.39.11-.04.22-.08.33-.13-.11-.08-.22-.17-.33-.25,0-.54,0-1.08,0-1.61.12-.09.23-.18.35-.27-.11-.05-.22-.09-.33-.14,0-2.25,0-4.5.01-6.75,0-.27,0-.54,0-.8-.03-.8-.06-1.6-.08-2.39.01-.26.03-.53.04-.79Zm5.15,47.86c39.62-.27,79.01.11,118.41-.31,39.85-.42,79.71-.09,119.56-.09-.04-.4-.1-.83-.11-1.25-.09-5.77-.12-11.54-.28-17.3-.14-5.19-.48-10.37-.63-15.56-.07-2.39.17-4.79.12-7.19-.09-4.27-.27-8.53-.45-12.8-.08-1.8-.37-3.59-.41-5.39-.08-3.58-.3-7.19.04-10.73.2-2-1.05-1.55-1.8-1.54-3.7.04-7.4.25-11.1.39-3.5.13-7.01.35-10.51.33-1.37,0-3.31-.12-3.96-.97-.84-1.09-.79-2.97-.87-4.52-.15-2.75-.08-5.51-.17-8.27-.05-1.36-.34-2.72-.37-4.09-.07-3.74-.06-7.49-.07-11.23-.01-2.87.09-5.75-.04-8.62-.14-3.08-.56-6.14-.73-9.22-.17-2.97-.3-5.95-.2-8.92.04-1.19.62-2.56,2.17-2.68,2.81-.22,5.64-.28,8.45-.45,2.96-.19,6.02.56,8.83-1.02.23-.13.69.14,1.04.24,2.7.78,5.35.46,8.21-.14-.21-3.3-.62-6.39-.52-9.46.08-2.5.15-4.96-.06-7.46-.21-2.5-.08-5.04-.15-7.55-.04-1.39-.26-2.78-.24-4.16.03-2.19.33-4.38.27-6.56-.14-4.66-.52-9.32-.66-13.99-.1-3.23.09-6.47.03-9.71-.08-4.13-.39-8.25-.39-12.38,0-1.66-.62-2.01-2.07-1.94-2.85.13-5.71.29-8.57.22-4.4-.1-8.79-.46-13.19-.55-2.36-.05-4.73.33-7.09.31-4.1-.04-8.19-.23-12.29-.37-2.98-.1-5.96-.28-8.94-.34-2.34-.05-4.69-.05-7.03.07-1.33.07-2.64.79-3.97-.07-.19-.12-.61.12-.92.16-.6.08-1.2.21-1.79.18-.5-.02-1-.37-1.49-.35-2.37.08-4.74.34-7.11.34-2.7,0-5.41-.29-8.11-.32-5.72-.06-11.44-.04-17.16-.05-5.63,0-11.27.04-16.9-.03-3.21-.04-6.42-.3-9.63-.38-2.86-.07-5.72,0-8.58-.03-2.41-.03-4.86-.42-7.22-.11-4.15.54-8.27-.44-12.41.08-1.2.15-2.46-.31-3.7-.32-3.91-.03-7.82.08-11.72.01-3.13-.05-6.27-.37-9.4-.41-3.29-.03-6.58.18-9.87.2-3.63.02-7.25-.06-10.88-.09-.64,0-1.29-.03-1.93-.01-1.86.06-3.73.24-5.59.19-4.6-.12-9.2-.42-13.8-.5-3.44-.06-6.88.12-10.32.19-.95.02-1.9,0-2.86,0,0,2.79-.03,5.2,0,7.61.07,4.82.19,9.65.27,14.47.06,3.54.09,7.09.11,10.63.01,3.13,0,6.25-.02,9.38,0,1.19.22,1.85,1.7,1.45,1.31-.35,2.7-.42,4.07-.45,3.78-.11,7.57-.03,11.35-.23,4.06-.21,8.1-.75,12.17-.96,3.29-.17,4.38.51,4.98,3.81.59,3.27.64,6.66.75,10,.07,2.07-.22,4.15-.29,6.22-.11,3.14-.02,6.3-.28,9.43-.24,2.94-.85,5.84-1.23,8.77-.1.77.24,1.64.02,2.36-.68,2.24-1.57,4.42-2.29,6.65-1.7,5.29-3.82,10.41-7.49,14.62-2,2.3-4.49,4.24-6.98,6.04-1.63,1.18-3.61,1.96-5.53,2.63-1.56.54-3.29.58-4.91.96-1.77.42-3.51.97-5.26,1.46v91.67Zm238.12,4.78c-3.23,0-6.16-.04-9.08,0-3.96.06-7.93.17-11.89.31-1.43.05-2.86.41-4.28.35-2.86-.13-5.71-.56-8.57-.67-3.07-.12-6.14,0-9.21,0-5.92,0-11.84.05-17.75-.02-6.46-.07-12.92-.55-19.36-.27-4.19.19-8.36.26-12.55.26-6.65,0-13.31,0-19.96,0-9.76,0-19.52-.02-29.28-.02-6.15,0-12.3.07-18.45,0-4.3-.04-8.59-.39-12.89-.34-3.74.05-7.46.56-11.2.69-2.01.07-4.04-.32-6.06-.35-4.57-.06-9.14-.01-13.7,0-10.57,0-21.14.05-31.71,0-1.63,0-2.2.42-2.16,2.13.2,8.39.34,16.77.37,25.16,0,1.8.68,2.35,2.31,2.25,2.82-.16,5.65-.38,8.48-.38,3.17,0,6.33.21,9.49.36,2.14.1,4.28.34,6.43.39,7.01.16,14.02.27,21.03.39,8.02.14,16.03.34,24.05.4,9.43.07,18.85,0,28.28.02,3.35.01,6.73-.07,10.05.29,3.36.36,6.67-.43,10.04.04,2.93.41,5.94.29,8.91.38,1.66.05,3.33.06,4.99.08.53,0,1.05,0,1.58-.03,2.14-.1,4.29-.32,6.43-.29,3.07.05,6.13.35,9.2.43,1.23.03,2.48-.42,3.71-.35,2.2.11,4.39.61,6.59.65,4.52.1,9.04-.03,13.57.02,2.69.03,5.38.33,8.08.36,7.87.07,15.74.01,23.61.08,6.07.05,12.13.24,18.19.31,4.44.05,8.88.01,13.55.01-.28-10.65-.57-21.56-.86-32.67ZM55.79,116.87c2.29-.31,5.78-.7,9.24-1.26,1.97-.32,4.12-.52,5.77-1.48,2.14-1.24,3.59-3.47,4.36-5.86.9-2.8,2.39-5.44,2.11-8.62-.13-1.54,1.15-3.23.95-4.74-.2-1.53.42-2.11,1.44-2.41,1.72-.52,3.64-.5,5.27-1.2,2.25-.96,4.5-2.15,6.37-3.7.73-.6.43-2.44.61-3.72.05-.32.17-.63.21-.95.53-4.34,1.24-8.67,1.51-13.02.23-3.6-.12-7.22-.11-10.84,0-1.57.25-3.14.4-4.72.13-1.39-.98-1.96-1.9-1.93-2.88.09-5.76.46-8.64.74-5.3.52-10.59,1.25-15.9,1.53-6.79.36-13.6.29-20.39.52-3.78.13-7.55.45-11.31.76-.44.04-1.19.57-1.2.89-.1,3.47-.13,6.95-.06,10.42.04,2.09.38,4.18.42,6.27.06,4.17.02,8.35,0,12.53-.04,5.48-.09,10.96-.16,16.44-.05,3.78-.21,7.55-.19,11.32,0,.61.61,1.61,1.13,1.76,1.96.57,3.98,1.14,6,1.22,4.28.18,8.57.05,14.06.05Zm221.54,19.44c16.58-.53,32.75-1.05,48.98-1.57-.53-16.45-1.05-32.8-1.57-49.19-16.35.59-32.54,1.17-48.93,1.76.5,16.25,1.01,32.61,1.52,49.01Zm-188.26-40.8c-1.75.24-3.3.32-4.78.71-.6.16-1.34.92-1.47,1.52-.82,3.81-1.49,7.65-2.29,11.94,4.25-4.18,7.07-8.73,8.54-14.17Z"/>
    <path class="cls-3" d="m59.26,197.03c.02,1.8.06,3.59.06,5.39,0,1.13-.07,2.26-.1,3.39-.22-.11-.63-.22-.63-.32.03-2.83-.85-5.74.67-8.45Z"/>
    <path class="cls-3" d="m306.54,81.22c-2.17.47-2.81-.65-1.96-3.43.65,1.14,1.3,2.29,1.96,3.43Z"/>
    <path class="cls-3" d="m306.38,156.78c-.09-1.21-.17-2.41-.26-3.62.09,1.21.17,2.41.26,3.62Z"/>
    <path class="cls-3" d="m306.42,161.16c0-1.2,0-2.4,0-3.6,0,1.2,0,2.4,0,3.6Z"/>
    <path class="cls-3" d="m306.39,167.15v-2.42c0,.81,0,1.61,0,2.42Z"/>
    <path class="cls-3" d="m59.23,184.28c0,.53,0,1.06,0,1.59,0-.53,0-1.06,0-1.59Z"/>
    <path class="cls-3" d="m59.25,207c0,.4,0,.8,0,1.2,0-.4,0-.8,0-1.2Z"/>
    <path class="cls-3" d="m59.22,164.74c-.01.26-.03.53-.04.79.01-.26.03-.53.04-.79Z"/>
    <path class="cls-3" d="m59.27,167.93c0,.27,0,.54,0,.8,0-.27,0-.54,0-.8Z"/>
    <path class="cls-3" d="m59.25,193.85v.8c0-.27,0-.53,0-.8Z"/>
    <path class="cls-3" d="m59.25,175.49c.11.05.22.09.33.14-.12.09-.23.18-.35.27,0-.14.01-.27.02-.41Z"/>
    <path class="cls-3" d="m59.23,177.51c.11.08.22.17.33.25-.11.04-.22.08-.33.13-.07-.13-.08-.25,0-.38Z"/>
    <path class="cls-3" d="m64.37,212.61v-91.67c1.75-.49,3.49-1.05,5.26-1.46,1.62-.38,3.35-.42,4.91-.96,1.92-.67,3.9-1.45,5.53-2.63,2.49-1.8,4.98-3.74,6.98-6.04,3.67-4.21,5.79-9.34,7.49-14.62.72-2.23,1.62-4.41,2.29-6.65.22-.72-.12-1.58-.02-2.36.38-2.93.99-5.84,1.23-8.77.26-3.13.17-6.29.28-9.43.07-2.08.36-4.15.29-6.22-.11-3.34-.16-6.73-.75-10-.6-3.3-1.69-3.98-4.98-3.81-4.06.21-8.1.75-12.17.96-3.78.2-7.57.12-11.35.23-1.36.04-2.76.11-4.07.45-1.49.39-1.71-.26-1.7-1.45.02-3.13.04-6.25.02-9.38-.02-3.54-.05-7.09-.11-10.63-.08-4.82-.2-9.65-.27-14.47-.04-2.41,0-4.82,0-7.61.96,0,1.91.02,2.86,0,3.44-.06,6.88-.24,10.32-.19,4.6.08,9.2.38,13.8.5,1.86.05,3.73-.13,5.59-.19.64-.02,1.29,0,1.93.01,3.63.03,7.26.11,10.88.09,3.29-.02,6.58-.23,9.87-.2,3.13.03,6.27.35,9.4.41,3.91.07,7.82-.05,11.72-.01,1.24.01,2.5.48,3.7.32,4.14-.52,8.26.46,12.41-.08,2.36-.31,4.81.08,7.22.11,2.86.03,5.72-.04,8.58.03,3.21.08,6.42.34,9.63.38,5.63.07,11.27.02,16.9.03,5.72,0,11.44-.01,17.16.05,2.71.03,5.41.31,8.11.32,2.37,0,4.74-.26,7.11-.34.49-.02.99.33,1.49.35.59.03,1.2-.1,1.79-.18.32-.04.73-.28.92-.16,1.33.86,2.64.14,3.97.07,2.34-.12,4.69-.12,7.03-.07,2.98.06,5.96.24,8.94.34,4.1.14,8.19.33,12.29.37,2.36.02,4.73-.36,7.09-.31,4.4.1,8.79.45,13.19.55,2.85.07,5.71-.09,8.57-.22,1.45-.07,2.07.29,2.07,1.94,0,4.13.31,8.25.39,12.38.06,3.24-.13,6.48-.03,9.71.15,4.66.52,9.32.66,13.99.07,2.18-.24,4.37-.27,6.56-.02,1.39.2,2.77.24,4.16.07,2.52-.05,5.05.15,7.55.21,2.5.13,4.96.06,7.46-.1,3.07.32,6.16.52,9.46-2.86.6-5.51.92-8.21.14-.35-.1-.81-.37-1.04-.24-2.81,1.58-5.88.83-8.83,1.02-2.82.18-5.64.23-8.45.45-1.54.12-2.13,1.49-2.17,2.68-.1,2.97.03,5.95.2,8.92.17,3.08.59,6.14.73,9.22.13,2.87.03,5.74.04,8.62.01,3.74,0,7.49.07,11.23.03,1.36.32,2.72.37,4.09.09,2.76.02,5.52.17,8.27.08,1.55.03,3.43.87,4.52.66.85,2.59.96,3.96.97,3.5.02,7.01-.19,10.51-.33,3.7-.14,7.4-.35,11.1-.39.75,0,1.99-.46,1.8,1.54-.35,3.55-.12,7.15-.04,10.73.04,1.8.33,3.59.41,5.39.19,4.27.37,8.53.45,12.8.05,2.39-.19,4.79-.12,7.19.15,5.19.49,10.37.63,15.56.16,5.77.19,11.54.28,17.3,0,.43.07.86.11,1.25-39.85,0-79.71-.33-119.56.09-39.4.42-78.8.04-118.41.31Z"/>
    <path class="cls-3" d="m302.49,217.39c.29,11.11.58,22.02.86,32.67-4.67,0-9.11.04-13.55-.01-6.07-.07-12.13-.26-18.19-.31-7.87-.07-15.74-.02-23.61-.08-2.69-.02-5.38-.32-8.08-.36-4.52-.06-9.05.08-13.57-.02-2.2-.05-4.39-.54-6.59-.65-1.23-.06-2.48.39-3.71.35-3.07-.08-6.13-.37-9.2-.43-2.14-.04-4.29.19-6.43.29-.53.02-1.05.03-1.58.03-1.66-.02-3.33-.03-4.99-.08-2.97-.09-5.98.04-8.91-.38-3.37-.47-6.68.32-10.04-.04-3.32-.35-6.7-.28-10.05-.29-9.43-.03-18.85.05-28.28-.02-8.02-.06-16.03-.26-24.05-.4-7.01-.12-14.02-.23-21.03-.39-2.14-.05-4.28-.28-6.43-.39-3.16-.15-6.33-.36-9.49-.36-2.83,0-5.65.22-8.48.38-1.63.09-2.3-.46-2.31-2.25-.03-8.39-.17-16.78-.37-25.16-.04-1.7.53-2.14,2.16-2.13,10.57.05,21.14.02,31.71,0,4.57,0,9.14-.05,13.7,0,2.02.02,4.05.42,6.06.35,3.74-.13,7.47-.64,11.2-.69,4.29-.06,8.59.3,12.89.34,6.15.06,12.3,0,18.45,0,9.76,0,19.52.01,29.28.02,6.65,0,13.31,0,19.96,0,4.18,0,8.36-.07,12.55-.26,6.44-.29,12.9.19,19.36.27,5.92.07,11.83.02,17.75.02,3.07,0,6.14-.12,9.21,0,2.86.11,5.71.54,8.57.67,1.42.06,2.85-.3,4.28-.35,3.96-.14,7.93-.25,11.89-.31,2.92-.05,5.85,0,9.08,0Z"/>
    <path class="cls-2" d="m55.79,116.87c-5.49,0-9.78.12-14.06-.05-2.02-.08-4.05-.65-6-1.22-.52-.15-1.13-1.15-1.13-1.76-.02-3.77.14-7.55.19-11.32.08-5.48.13-10.96.16-16.44.03-4.18.07-8.35,0-12.53-.03-2.09-.38-4.18-.42-6.27-.07-3.47-.03-6.95.06-10.42,0-.32.76-.86,1.2-.89,3.77-.31,7.54-.63,11.31-.76,6.8-.23,13.6-.16,20.39-.52,5.31-.28,10.6-1.01,15.9-1.53,2.88-.28,5.75-.65,8.64-.74.92-.03,2.03.54,1.9,1.93-.14,1.57-.39,3.14-.4,4.72,0,3.61.34,7.24.11,10.84-.27,4.36-.98,8.68-1.51,13.02-.04.32-.17.63-.21.95-.18,1.27.11,3.11-.61,3.72-1.87,1.55-4.11,2.74-6.37,3.7-1.63.7-3.55.68-5.27,1.2-1.02.31-1.64.88-1.44,2.41.2,1.51-1.08,3.2-.95,4.74.28,3.19-1.21,5.82-2.11,8.62-.77,2.39-2.22,4.62-4.36,5.86-1.66.96-3.81,1.16-5.77,1.48-3.46.56-6.95.96-9.24,1.26Z"/>
    <path class="cls-4" d="m277.33,136.31c-.51-16.4-1.02-32.76-1.52-49.01,16.39-.59,32.58-1.17,48.93-1.76.52,16.4,1.05,32.75,1.57,49.19-16.23.52-32.4,1.04-48.98,1.57Z"/>
    <path class="cls-3" d="m89.07,95.51c-1.47,5.44-4.3,9.99-8.54,14.17.8-4.28,1.47-8.13,2.29-11.94.13-.6.87-1.36,1.47-1.52,1.48-.39,3.03-.47,4.78-.71Z"/>
  </g>
</svg>