<?xml version="1.0" encoding="UTF-8"?>
<svg id="Layer_2" data-name="Layer 2" xmlns="http://www.w3.org/2000/svg" viewBox="0 0 1252.74 362.5">
  <defs>
    <style>
      .cls-1 {
        fill: #969696;
      }

      .cls-2 {
        fill: gray;
      }

      .cls-3 {
        stroke: #000;
        stroke-miterlimit: 10;
        stroke-width: 4px;
      }
    </style>
  </defs>
  <g id="Layer_1-2" data-name="Layer 1">
    <g>
      <path class="cls-1" d="m0,163.75c0-25.87,4.67-45.18,14.01-57.93,9.34-12.74,22.42-19.11,39.25-19.11,14.3,0,25.34,5.64,33.12,16.93l1.6-14.01h37.21v157.87c0,20.14-5.64,35.53-16.93,46.18-11.29,10.65-27.48,15.98-48.59,15.98-8.66,0-17.75-1.73-27.28-5.18-9.53-3.45-16.63-7.86-21.3-13.21l13.86-28.6c3.89,4.08,8.95,7.42,15.17,9.99,6.22,2.58,12.11,3.87,17.65,3.87,9.24,0,15.88-2.21,19.92-6.64,4.04-4.43,6.1-11.55,6.2-21.38v-13.57c-7.88,10.31-18.14,15.47-30.79,15.47-16.83,0-29.84-6.54-39.03-19.62C4.89,217.71.19,199.26,0,175.42v-11.67Zm41.29,10.36c0,14.59,1.9,25.22,5.69,31.88,3.79,6.66,9.82,9.99,18.09,9.99s14.74-3.06,18.82-9.19v-75.43c-4.28-6.71-10.46-10.07-18.53-10.07s-14.23,3.36-18.17,10.07-5.91,17.51-5.91,32.39v10.36Z"/>
      <path class="cls-1" d="m233.16,129.46l-13.72-1.17c-11.28,0-18.92,4.96-22.91,14.88v104.32h-41.44V89.63h38.96l1.17,17.07c6.52-13.33,15.51-19.99,26.99-19.99,4.67,0,8.46.63,11.38,1.9l-.44,40.85Z"/>
      <path d="m366.67,247.5c-1.17-2.43-2.33-6.52-3.5-12.26-7.39,10.12-17.41,15.17-30.06,15.17s-24.2-4.38-32.9-13.13c-8.71-8.75-13.06-20.08-13.06-34,0-16.54,5.28-29.33,15.83-38.37,10.55-9.05,25.75-13.67,45.6-13.86h12.55v-12.69c0-7.1-1.22-12.11-3.65-15.03-2.43-2.92-5.98-4.38-10.65-4.38-10.31,0-15.47,6.03-15.47,18.09h-41.29c0-14.59,5.47-26.63,16.42-36.11,10.94-9.48,24.78-14.23,41.51-14.23s30.71,4.5,40.2,13.5c9.48,9,14.23,21.86,14.23,38.59v74.27c.19,13.62,2.14,24.27,5.84,31.95v2.48h-41.58Zm-24.37-29.47c4.57,0,8.46-.92,11.67-2.77,3.21-1.85,5.59-4.04,7.15-6.57v-32.83h-9.92c-7,0-12.53,2.24-16.56,6.71-4.04,4.48-6.06,10.46-6.06,17.95,0,11.67,4.57,17.51,13.72,17.51Z"/>
      <path d="m432.33,48.77c0-6.42,2.04-11.67,6.13-15.76s9.53-6.13,16.34-6.13,12.26,2.04,16.34,6.13c4.09,4.09,6.13,9.34,6.13,15.76s-2.02,11.58-6.05,15.76c-4.04,4.18-9.51,6.27-16.42,6.27s-12.38-2.09-16.41-6.27c-4.04-4.18-6.06-9.43-6.06-15.76Zm43.33,198.73h-41.44V89.63h41.44v157.87Z"/>
      <path class="cls-1" d="m531.95,163.75c0-25.87,4.38-45.18,13.13-57.93,8.75-12.74,21.5-19.11,38.23-19.11,12.16,0,22.27,5.25,30.35,15.76V23.39h41.58v224.12h-37.5l-1.9-16.05c-8.46,12.65-19.36,18.97-32.68,18.97-16.54,0-29.16-6.32-37.86-18.97-8.71-12.64-13.16-31.22-13.35-55.74v-11.96Zm41.44,10.36c0,15.56,1.65,26.43,4.96,32.61,3.31,6.18,8.9,9.27,16.78,9.27s14.35-3.65,18.53-10.94v-72.08c-4.08-7.78-10.21-11.67-18.38-11.67-7.59,0-13.13,3.06-16.63,9.19-3.5,6.13-5.25,17.02-5.25,32.68v10.94Z"/>
      <path class="cls-1" d="m685.59,48.77c0-6.42,2.04-11.67,6.13-15.76,4.09-4.09,9.53-6.13,16.34-6.13s12.26,2.04,16.34,6.13c4.09,4.09,6.13,9.34,6.13,15.76s-2.02,11.58-6.06,15.76c-4.04,4.18-9.51,6.27-16.42,6.27s-12.38-2.09-16.41-6.27c-4.04-4.18-6.06-9.43-6.06-15.76Zm43.33,198.73h-41.44V89.63h41.44v157.87Z"/>
      <path class="cls-1" d="m824.64,250.42c-21.21,0-37.74-6.32-49.61-18.97-11.87-12.64-17.8-30.74-17.8-54.28v-12.55c0-24.9,5.45-44.11,16.34-57.63,10.89-13.52,26.5-20.28,46.84-20.28s34.77,6.34,44.79,19.01c10.02,12.68,15.12,31.44,15.32,56.31v20.25h-82.15c.58,11.72,3.16,20.3,7.73,25.72,4.57,5.42,11.62,8.13,21.16,8.13,13.81,0,25.34-4.72,34.58-14.15l16.2,24.95c-5.06,7-12.4,12.67-22.03,17-9.63,4.33-20.09,6.49-31.37,6.49Zm-25.97-96.88h41.29v-3.79c-.2-9.43-1.75-16.58-4.67-21.45-2.92-4.86-7.98-7.3-15.17-7.3s-12.43,2.58-15.69,7.73c-3.26,5.16-5.18,13.42-5.76,24.8Z"/>
      <path class="cls-1" d="m941.66,89.63l1.17,15.61c9.34-12.35,21.54-18.53,36.62-18.53,27.14,0,41.1,19.02,41.88,57.05v103.74h-41.44v-100.68c0-8.95-1.34-15.44-4.01-19.48-2.68-4.04-7.37-6.06-14.08-6.06-7.49,0-13.33,3.84-17.51,11.53v114.68h-41.44V89.63h38.81Z"/>
      <path class="cls-1" d="m1098.95,50.82v38.81h21.16v30.93h-21.16v78.47c0,6.24.85,10.52,2.55,12.86,1.7,2.34,4.98,3.51,9.85,3.51,3.99,0,7.25-.34,9.78-1.02l-.29,32.1c-7,2.63-14.59,3.94-22.76,3.94-26.65,0-40.12-15.29-40.42-45.87v-83.99h-18.24v-30.93h18.24v-38.81h41.29Z"/>
      <path class="cls-1" d="m1212.61,205.19c0-3.5-1.68-6.73-5.03-9.7-3.36-2.97-10.82-6.98-22.4-12.04-17.02-6.91-28.72-14.06-35.09-21.45-6.37-7.39-9.56-16.58-9.56-27.58,0-13.81,4.98-25.22,14.96-34.22,9.97-9,23.17-13.5,39.61-13.5,17.31,0,31.17,4.48,41.58,13.42,10.41,8.95,15.61,20.96,15.61,36.04h-41.29c0-12.84-5.35-19.26-16.05-19.26-4.38,0-7.98,1.36-10.8,4.09-2.82,2.72-4.23,6.52-4.23,11.38,0,3.5,1.55,6.59,4.67,9.27,3.11,2.68,10.46,6.49,22.03,11.45,16.83,6.23,28.72,13.16,35.67,20.79,6.95,7.64,10.43,17.53,10.43,29.69,0,14.11-5.3,25.44-15.9,34-10.6,8.56-24.51,12.84-41.73,12.84-11.58,0-21.79-2.26-30.64-6.78-8.85-4.52-15.78-10.82-20.79-18.9-5.01-8.07-7.51-16.78-7.51-26.12h39.25c.19,7.2,1.87,12.6,5.03,16.2,3.16,3.6,8.34,5.4,15.54,5.4,11.09,0,16.63-5.01,16.63-15.03Z"/>
    </g>
    <g>
      <path class="cls-3" d="m460.25,267.52c.18-.61.3-.98.43-1.44,1.38,0,2.73-.04,4.07,0,5.74.19,11.47.4,17.21.61,1.03.04,1.03.04,1.21,1.3-.51.48-1.14.51-1.81.49-3.65-.11-7.3-.19-10.94-.29-2.95-.08-5.89-.17-8.84-.29-.4-.02-.79-.23-1.33-.39Z"/>
      <path class="cls-3" d="m258.79,207.86c0,1.76.07,3.52-.02,5.27-.13,2.79-.35,5.58-.54,8.36-.02.31.02.69-.12.92-.19.3-.55.68-.83.68-.41,0-.82-.32-.81-.88,0-.68.02-1.36.05-2.03.21-4.78.41-9.56.66-14.34.02-.43.3-.91.59-1.24.1-.12.67.07.9.26.18.15.22.55.23.84.03.72,0,1.44,0,2.16-.04,0-.08,0-.12,0Z"/>
      <path class="cls-3" d="m509.03,46.35c.14,3.02.29,6.04.43,9.06.02.54.05,1.09-.04,1.61-.05.29-.32.7-.55.77-.26.07-.66-.15-.88-.37-.19-.19-.28-.56-.3-.86-.34-4.32-.69-8.64-.51-12.98.03-.72.13-1.44.2-2.16.06-.56.32-.95.89-.95.51,0,.88.54.88,1.15,0,1.58,0,3.15,0,4.73-.04,0-.07,0-.11,0Z"/>
      <path class="cls-3" d="m257.3,78.38c1.25.48,1.24.53,1.2,1.55-.2,4.32-.37,8.65-.56,12.97-.03.63-.08,1.26-.18,1.88-.07.44-.19.92-.75.97-.44.05-1-.46-1.05-1.01-.06-.63-.07-1.26-.04-1.89.17-3.77.32-7.55.56-11.31.07-1.05.09-2.17.81-3.15Z"/>
      <path class="cls-3" d="m509.25,153.28c-.9-.15-1.18-.62-1.14-1.44.11-2.57.18-5.14.26-7.71.08-2.57.14-5.13.22-7.7,0-.31.03-.63.11-.93.11-.39.38-.66.78-.51.29.11.71.34.74.57.11.74.1,1.5.08,2.25-.13,4.33-.28,8.67-.44,13-.03.83.08,1.73-.62,2.47Z"/>
      <path class="cls-3" d="m263.62,265.56c4.63.1,8.76.19,12.9.28.3,0,.66-.04.89.1.26.16.51.49.56.79.08.46-.22.78-.69.8-1.03.04-2.07.06-3.1.04-2.13-.03-4.26-.07-6.39-.13-2.48-.06-4.95-.14-7.43-.22-.45-.02-.89-.13-.94-.73-.04-.56.33-.92,1.03-.93,1.22-.02,2.44,0,3.17,0Z"/>
      <path class="cls-3" d="m509.47,210.26c0-2.3,0-4.6,0-6.9,0-.56.02-1.14.73-1.22.54-.06.99.4,1.03,1.13.1,1.67.21,3.35.23,5.02.03,2.93-.02,5.87-.04,8.81,0,.22,0,.46-.05.67-.11.47-.13,1.1-.79,1.04-.57-.06-.91-.5-.94-1.13-.03-.67-.1-1.35-.1-2.02-.01-1.8,0-3.59,0-5.39-.03,0-.05,0-.08,0Z"/>
      <path class="cls-3" d="m293,268.24c-.09-.56-.15-.94-.24-1.51.96-.09,1.81-.24,2.66-.22,4.44.1,8.87-.1,13.29-.42.69-.05,1.39-.05,2.09-.05.46,0,.74.22.74.74,0,.54-.22.84-.77.87-1.83.1-3.65.27-5.48.33-3.52.12-7.04.18-10.56.26-.52.01-1.04,0-1.72,0Z"/>
      <path class="cls-3" d="m256.38,127.69c-.61-.44-.89-.99-.88-1.81.03-2.89-.03-5.78-.03-8.67,0-1.44.04-2.87.1-4.31.02-.57-.02-1.26.84-1.25.54,0,.94.55.96,1.39.04,1.44.06,2.88.06,4.32,0,2.94-.01,5.88,0,8.82,0,.76-.22,1.32-1.04,1.5Z"/>
      <path class="cls-3" d="m258.26,246.96c0,2.39,0,4.79,0,7.18,0,.5.02,1.01-.1,1.48-.06.23-.38.48-.63.54-.17.04-.52-.17-.61-.35-.18-.4-.33-.86-.33-1.29-.06-4.98-.09-9.95.38-14.91.03-.36.02-.76.19-1.05.15-.26.54-.57.79-.54.24.03.45.46.63.73.06.09,0,.26,0,.4-.07,2.6-.15,5.2-.22,7.8-.03,0-.05,0-.08,0Z"/>
      <path class="cls-3" d="m429.66,266.71c1.64,0,3.28,0,4.93,0,3.17-.02,6.33-.05,9.5-.08.61,0,1.22,0,1.83,0,.48,0,.86.1.88.72.02.59-.29.82-.78.88-.78.09-1.55.22-2.33.23-3.22.03-6.43.03-9.65,0-1.22-.01-2.43-.13-3.65-.23-1.04-.09-1.18-.41-.73-1.52Z"/>
      <path class="cls-3" d="m410.67,4.46c-2.08.07-4.15.17-6.23.2-1.69.03-3.38-.02-5.07-.04-.13,0-.26.01-.39,0-.44-.02-.95-.03-1.02-.6-.07-.6.29-.89.86-.95.6-.06,1.2-.22,1.8-.23,4.03-.1,8.07-.19,12.1-.26,1.08-.02,1.37.16,1.43.75.06.6-.23.86-1.27,1-.73.1-1.47.12-2.21.17,0-.01,0-.03,0-.04Z"/>
      <path class="cls-3" d="m371.2,268.48c-2.08,0-4.16,0-6.24,0-.3,0-.61-.03-.91-.04-.5-.02-.87-.24-.87-.79,0-.56.26-.96.86-.98,1.31-.03,2.62-.07,3.92-.07,3.23.01,6.45.05,9.68.09.3,0,.61,0,.91.08.41.1.74.33.68.84-.06.5-.31.85-.85.85-1.22.01-2.44.03-3.66.03-1.17,0-2.35,0-3.52,0,0,0,0,0,0-.01Z"/>
      <path class="cls-3" d="m489.58,4.66c.34-1.04,1.07-1.22,1.89-1.25,3.39-.12,6.78-.24,10.16-.35.65-.02,1.3-.06,1.95-.06.38,0,.79-.02,1.15.1.25.09.58.4.58.63,0,.3-.19.69-.42.9-.2.19-.56.27-.85.28-2.33.07-4.67.09-7,.16-1.95.06-3.9.15-5.85.25-.63.03-1.22.05-1.61-.66Z"/>
      <path class="cls-3" d="m510.67,104.64c0,1.52.04,2.97,0,4.41-.1,2.67-.26,5.33-.39,7.99-.03.72,0,1.44-.05,2.15-.06.89-.39,1.33-.85,1.29-.57-.05-.9-.54-.88-1.44.01-.86.1-1.71.13-2.57.13-3.57.24-7.15.38-10.72.05-1.19.17-1.27,1.67-1.11Z"/>
      <path class="cls-3" d="m446.22,3.2c-.03,1.41-.08,1.52-1.1,1.54-1.78.03-3.56-.02-5.35,0-2.56.04-5.13.12-7.69.16-.46,0-.92-.13-1.35-.19-.14-1.33-.04-1.52,1.03-1.59,1.43-.1,2.85-.2,4.28-.2,2.95,0,5.9.04,8.85.09.42,0,.84.12,1.32.2Z"/>
      <path class="cls-3" d="m413.36,267.06c.5,1.15.34,1.52-.8,1.5-2.69-.03-5.37-.13-8.06-.22-1.78-.06-3.55-.15-5.33-.24-.26-.01-.52-.02-.77-.06-.47-.09-.84-.32-.75-.9.08-.5.35-.8.89-.78.74.03,1.48-.02,2.22.01,4.12.19,8.24.4,12.35.6.08,0,.16.05.24.08Z"/>
      <path class="cls-3" d="m508.51,79.85c0-1.45-.06-2.9.02-4.34.06-1.1.42-1.48,1.02-1.45.59.03.67.36.67,1.62,0,2.34.06,4.69.12,7.03.04,1.88.12,3.76.17,5.64,0,.22.05.5-.05.66-.17.27-.42.63-.67.67-.26.04-.66-.2-.83-.44-.19-.27-.23-.67-.25-1.02-.15-2.79-.27-5.58-.4-8.37.07,0,.14,0,.21,0Z"/>
      <path class="cls-3" d="m338.14,268.03c-2.3,0-4.6,0-6.9,0-.26,0-.52-.03-.78-.05-.45-.04-.82-.28-.71-.76.08-.32.4-.69.69-.82.38-.16.86-.14,1.29-.13,4.31.01,8.63.04,12.94.06.44,0,.87.04,1.31.05.54.02.8.36.79.88-.01.51-.38.68-.81.7-.83.04-1.65.07-2.48.07-1.78.01-3.56,0-5.35,0,0,0,0,0,0-.01Z"/>
      <path class="cls-3" d="m510.72,176.47c.07,2.83.14,5.66.21,8.5,0,.31-.05.63,0,.94.08.63-.24.94-.76,1.05-.49.1-.91-.34-.96-1.02-.11-1.39-.25-2.79-.24-4.18.02-2.85.14-5.69.22-8.54,0-.23,0-.46.04-.68.09-.46.23-.9.79-.92.54-.02.97.39.96,1.06-.01,1.26-.1,2.52-.16,3.78-.03,0-.06,0-.1,0Z"/>
      <path class="cls-3" d="m509.09,244.71c0-1.67,0-3.11,0-4.56,0-.27.02-.54.04-.81.04-.46.22-.75.72-.78.52-.02.74.3.78.73.09.95.13,1.9.17,2.85.08,1.9.14,3.8.22,5.7.07,1.85.16,3.7.22,5.55.02.79-.23,1.13-.79,1.14-.7.01-.85-.48-.88-1.08-.16-2.98-.33-5.96-.48-8.73Z"/>
      <path class="cls-3" d="m256.39,54.29c0-1.49,0-2.97,0-4.46,0-.36-.06-.76.06-1.07.13-.33.4-.77.68-.83.43-.08.84.23.94.74.1.53.17,1.07.19,1.61.14,3.64.27,7.28.41,10.91.02.53,0,1.06-.53,1.23-.26.08-.68-.09-.91-.29-.19-.16-.27-.54-.28-.83-.14-2.34-.26-4.68-.38-7.02-.05,0-.11,0-.16,0Z"/>
      <path class="cls-3" d="m257.65,188.04c-1.38-.03-1.49-.11-1.5-1.14-.02-4.02-.03-8.05-.04-12.07,0-.14-.05-.31.02-.4.24-.34.46-.76.8-.93.37-.19,1.01.42,1.07.94.05.49.02.99.02,1.49-.01,3.56-.02,7.11-.06,10.67,0,.47-.19.94-.3,1.44Z"/>
      <path class="cls-3" d="m257.26,153.23c0,2.11-.01,4.22,0,6.33,0,.54-.22.9-.66,1.03-.52.15-.8-.27-.96-.7-.12-.33-.18-.7-.19-1.05-.13-3.79-.15-7.58.34-11.35.04-.31.09-.63.15-.93.08-.39.3-.75.7-.59.25.1.53.49.55.76.06,1.03,0,2.08,0,3.11,0,1.13,0,2.26,0,3.39.02,0,.04,0,.07,0Z"/>
      <path class="cls-3" d="m373.48,4.67c-1.74,0-3.48,0-5.22,0-.26,0-.53.05-.78,0-.38-.08-.81-.2-.8-.73,0-.5.27-.86.74-1,.2-.06.43-.04.65-.05,3.53-.11,7.05-.22,10.58-.33.35-.01.7,0,1.05.03.53.06.79.46.74.94-.03.28-.34.57-.58.77-.15.12-.41.1-.62.1-1.92,0-3.83,0-5.75,0,0,.09,0,.18,0,.27Z"/>
      <path class="cls-3" d="m496.94,267.92c-.17-1.31-.07-1.5.92-1.49,2.04.03,4.08.09,6.13.18,2.09.09,4.17.22,6.25.33.22.01.52-.04.63.09.24.27.51.62.55.96.05.46-.38.54-.75.53-1.09-.03-2.17-.06-3.26-.11-3.47-.15-6.93-.31-10.47-.48Z"/>
      <path class="cls-3" d="m458.76,5.48c.43-1.42.5-1.54,1.45-1.57,3.65-.11,7.31-.2,10.96-.28.53-.01,1.1.04,1.21.75.09.59-.42,1-1.22,1.07-.17.01-.35.02-.52.02-1.61,0-3.22,0-4.82.03-1.73.04-3.46.15-5.2.18-.58.01-1.16-.12-1.86-.2Z"/>
      <path class="cls-3" d="m315.2,4.67c-1.74,0-3.47.01-5.21-.01-.28,0-.63-.06-.83-.24-.44-.41-.22-1.18.37-1.37.33-.11.68-.17,1.02-.17,3.43.07,6.86.17,10.29.25.5.01.87.2.91.75.05.59-.28.96-.84.98-.86.04-1.73.01-2.59.01-1.04,0-2.08,0-3.12,0,0-.07,0-.13,0-.2Z"/>
      <path class="cls-3" d="m257.82,27.36c0,1.29,0,2.58,0,3.86,0,.22-.05.45-.08.67-.09.53-.13,1.14-.87,1.09-.52-.03-.93-.6-.92-1.27.02-1.62.06-3.24.11-4.86.05-1.66.1-3.32.16-4.97,0-.27-.06-.61.07-.79.18-.26.49-.5.78-.57.39-.08.65.21.68.64.06.94.13,1.88.16,2.82.03,1.12,0,2.25,0,3.37-.03,0-.05,0-.08,0Z"/>
      <path class="cls-3" d="m347.22,5.18c-2.11.17-4.23.35-6.34.53-.17.01-.35.07-.52.06-.48-.05-.84-.28-.88-.81-.04-.53.24-.87.73-.95.73-.13,1.46-.26,2.19-.3,2.55-.13,5.1-.25,7.66-.31,1.13-.03,1.6.29,1.64.9.04.62-.57.95-1.74.94-.91,0-1.82,0-2.73,0,0-.01,0-.03,0-.04Z"/>
      <path class="cls-3" d="m296.61,3.95c-1.3.02-2.55.06-3.79.05-2.76-.02-5.52-.07-8.27-.11-.09-1.31.02-1.53.94-1.62,1.26-.12,2.52-.22,3.78-.2,2.13.03,4.25.14,6.38.23,1.02.05,1.06.12.96,1.64Z"/>
      <path class="cls-3" d="m257.98,4.2c-.14-1.48-.15-1.57.78-1.64,3.08-.23,6.17-.4,9.25-.55.68-.03.68.04,1.12,1.04-.31.62-.88.66-1.45.68-1.83.08-3.65.13-5.48.22-1.39.07-2.77.17-4.22.26Z"/>
      <path class="cls-3" d="m509.33,20.47c0,1.89,0,3.78,0,5.66,0,.45-.07.9-.14,1.34-.07.47-.33.72-.82.64-.42-.07-.57-.34-.58-.76-.04-1.35-.09-2.7-.13-4.05-.05-2.03-.09-4.06-.13-6.09,0-.26-.04-.58.08-.78.14-.23.43-.49.66-.49.22,0,.55.27.64.5.16.41.21.88.23,1.32.03.9,0,1.8,0,2.7.07,0,.13,0,.2,0Z"/>
    </g>
    <g>
      <path class="cls-2" d="m522.81,345.39h9.97c1,0,1.75.08,2.23.21.38.09.62.24.73.43.15.24.23.64.23,1.15v4.79h4.62v-4.96c0-1.16-.24-2.07-.75-2.7-.28-.36-.64-.66-1.05-.9l-.06-.04.06-.04c.11-.08.21-.13.3-.21.58-.43,1.03-.98,1.35-1.65.32-.66.47-1.43.47-2.35,0-1.33-.3-2.44-.9-3.32-.6-.88-1.46-1.54-2.55-1.97-1.03-.39-2.23-.6-3.61-.6h-15.72v18.74h4.64v-6.57h.04Zm12.9-4.64c-.38.38-1,.56-1.84.56h-11.06v-3.83h11.06c.86,0,1.5.17,1.9.49.36.3.53.71.53,1.3,0,.64-.19,1.13-.58,1.5v-.02Z"/>
      <path class="cls-2" d="m496.31,351.1c1.58.77,3.47,1.16,5.6,1.16s4.02-.39,5.6-1.16c1.62-.77,2.87-1.92,3.78-3.36s1.35-3.17,1.35-5.16-.45-3.72-1.35-5.16c-.9-1.46-2.16-2.59-3.78-3.38-1.58-.75-3.46-1.15-5.6-1.15s-4,.39-5.6,1.15c-1.63.79-2.91,1.92-3.79,3.38-.9,1.45-1.35,3.19-1.35,5.16s.45,3.72,1.35,5.16c.88,1.43,2.16,2.57,3.79,3.36Zm-.49-8.53c0-1.2.26-2.22.77-3.01.53-.79,1.22-1.39,2.1-1.8.94-.41,2.03-.62,3.21-.62s2.27.21,3.19.62c.88.41,1.56,1,2.07,1.78s.75,1.8.75,3.01-.26,2.25-.75,3.02c-.51.81-1.18,1.37-2.07,1.77-.9.41-1.97.62-3.19.62s-2.29-.21-3.21-.62h0c-.9-.39-1.58-.98-2.1-1.77-.51-.79-.77-1.8-.77-3.02v.02Z"/>
      <polygon class="cls-2" points="470.13 344.88 484.74 344.88 484.74 340.77 470.13 340.77 470.13 337.44 486.9 337.44 486.9 333.22 465.49 333.22 465.49 351.96 470.13 351.96 470.13 344.88"/>
    </g>
    <g>
      <path class="cls-2" d="m169.32,348.76l7.65,4.37c-.45.79-1,1.52-1.61,2.22-2.06,2.31-4.87,4.09-8.4,5.31-3.54,1.21-7.75,1.83-12.64,1.83-4.08,0-7.81-.45-11.2-1.33-3.38-.89-6.3-2.21-8.73-3.98-2.45-1.77-4.34-3.97-5.68-6.61-1.35-2.63-2.01-5.72-2.01-9.26s.66-6.64,2.01-9.29c1.34-2.66,3.23-4.88,5.68-6.67,2.44-1.79,5.36-3.14,8.73-4.04,3.39-.9,7.12-1.36,11.2-1.36,4.89,0,9.11.63,12.67,1.9,3.56,1.26,6.38,3.07,8.44,5.4.57.65,1.09,1.35,1.52,2.08l-7.68,4.37c-.53-.93-1.19-1.79-2-2.54-1.37-1.28-3.14-2.27-5.28-2.94-2.15-.66-4.71-1.01-7.67-1.01-3.67,0-6.9.54-9.67,1.61-2.78,1.08-4.93,2.66-6.46,4.74-1.52,2.08-2.29,4.67-2.29,7.74s.77,5.59,2.29,7.65c1.52,2.07,3.67,3.64,6.46,4.72,2.77,1.07,6,1.6,9.67,1.6,2.97,0,5.51-.33,7.64-1.01,2.13-.68,3.87-1.65,5.24-2.91.85-.79,1.56-1.66,2.13-2.61h0Z"/>
      <path class="cls-2" d="m192.81,344.95v10.08h31.62v7.04h-40.05v-41h39.99v7.04h-31.56v10.2h27.33v6.66h-27.33Z"/>
      <path class="cls-2" d="m280,321.06v41h-8.43l-30.48-29.79v29.79h-8.43v-41h8.43l30.48,30.02v-30.02h8.43Z"/>
      <path class="cls-2" d="m329.6,328.09h-17.37v33.97h-8.43v-33.97h-17.43v-7.04h43.22v7.04Z"/>
      <path class="cls-2" d="m344.35,344.95v10.08h31.62v7.04h-40.05v-41h39.99v7.04h-31.56v10.2h27.33v6.66h-27.33Z"/>
      <path class="cls-2" d="m392.65,362.06h-8.44v-41.08h29.02c3.17,0,5.94.43,8.29,1.3,2.35.87,4.18,2.22,5.49,4.06,1.31,1.84,1.97,4.2,1.97,7.08,0,1.95-.3,3.17-.97,4.52-.68,1.35-1.62,2.46-2.83,3.3-.32.23-.66.44-1,.63,1.02.45,1.87,1.04,2.49,1.8.95,1.16,1.43,3.56,1.43,5.84v12.54h-8.45v-11.29c0-1.57-.27-2.78-.82-3.65-.55-.87-1.53-1.47-2.95-1.81-1.42-.34-3.46-.51-6.13-.51h-17.09v17.26Zm0-23.81h20.58c2.37,0,4.18-.47,5.43-1.42,1.25-.95,1.87-2.24,1.87-3.85s-.62-2.73-1.87-3.54c-1.25-.81-3.06-1.21-5.43-1.21h-20.58v10.03Z"/>
    </g>
    <g>
      <path class="cls-2" d="m598.41,321.06c4.6,0,8.45.55,11.53,1.65,3.08,1.1,5.55,2.59,7.38,4.47,1.84,1.88,3.15,4.05,3.93,6.5.78,2.45,1.17,5.03,1.17,7.73s-.43,5.3-1.3,7.8c-.87,2.49-2.24,4.7-4.12,6.62-1.88,1.92-4.35,3.44-7.42,4.56-3.06,1.12-6.79,1.68-11.19,1.68h-23.45v-41h23.45Zm-15.02,33.78h14.83c3.04,0,5.57-.37,7.57-1.11,2.01-.74,3.6-1.74,4.79-3.01,1.18-1.27,2.03-2.7,2.53-4.31.51-1.6.76-3.27.76-5.01s-.25-3.38-.76-4.94c-.51-1.56-1.35-2.96-2.53-4.18-1.18-1.22-2.78-2.2-4.79-2.92-2.01-.72-4.53-1.08-7.57-1.08h-14.83v26.56Z"/>
      <path class="cls-2" d="m631.9,362.06v-41h8.43v41h-8.43Z"/>
      <path class="cls-2" d="m700.35,340.62v21.44h-7.29s.15-4.29.25-6c.07-1.08.17-3.37.26-5.41-1.05,2.44-2.55,4.51-4.54,6.21-3.57,3.04-8.29,4.56-14.17,4.56-3.8,0-7.24-.44-10.3-1.33-3.06-.89-5.7-2.22-7.92-3.99s-3.92-3.97-5.1-6.59-1.77-5.64-1.77-9.06.62-6.54,1.87-9.22c1.25-2.68,3.02-4.95,5.32-6.81,2.3-1.86,5.05-3.26,8.24-4.21,3.19-.95,6.73-1.43,10.62-1.43,4.6,0,8.58.64,11.92,1.93,3.34,1.29,5.97,3.09,7.89,5.42.77.93,1.4,1.92,1.9,2.99l-7.33,3.87c-.53-1.1-1.24-2.09-2.11-2.96-1.25-1.25-2.88-2.22-4.91-2.92s-4.48-1.05-7.35-1.05c-3.68,0-6.81.59-9.41,1.78-2.6,1.18-4.57,2.85-5.93,5.01-1.35,2.15-2.03,4.69-2.03,7.6s.59,5.27,1.77,7.32c1.18,2.05,3.01,3.62,5.48,4.72s5.63,1.65,9.47,1.65c2.96,0,5.01-.47,6.3-.98,2.22-.89,3.83-1.86,5.35-3.2,1.12-.98,1.99-2.04,2.63-3.2h-13.59v-6.12h24.46Z"/>
      <path class="cls-2" d="m710.45,362.06v-41h8.43v41h-8.43Z"/>
      <path class="cls-2" d="m769.72,328.09h-17.37v33.97h-8.43v-33.97h-17.43v-7.04h43.22v7.04Z"/>
      <path class="cls-2" d="m802.63,362.06l-4.08-8.94h-21.41l-4.05,8.94h-9.13l19.27-41h9.13l19.46,41h-9.19Zm-7.29-15.97l-7.54-16.52-7.48,16.52h15.01Z"/>
      <path class="cls-2" d="m824.92,321.06v33.97h27.25v7.04h-35.68v-41h8.43Z"/>
      <path class="cls-2" d="m910.77,328.09h-17.37v33.97h-8.43v-33.97h-17.43v-7.04h43.22v7.04Z"/>
      <path class="cls-2" d="m964.06,321.06v41h-8.43v-17.05h-30.1v17.05h-8.43v-41h8.43v16.92h30.1v-16.92h8.43Z"/>
      <path class="cls-2" d="m982.67,362.06h-8.45v-41.08h29.02c3.17,0,5.94.43,8.29,1.3,2.35.87,4.18,2.22,5.49,4.06,1.31,1.84,1.97,4.2,1.97,7.08,0,1.95-.3,3.17-.97,4.52-.68,1.35-1.62,2.46-2.83,3.3-.32.23-.66.44-1,.63,1.02.45,1.87,1.04,2.49,1.8.95,1.16,1.43,3.56,1.43,5.84v12.54h-8.45v-11.29c0-1.57-.28-2.78-.83-3.65-.55-.87-1.54-1.47-2.95-1.81-1.42-.34-3.46-.51-6.13-.51h-17.09v17.26Zm0-23.81h20.58c2.37,0,4.18-.47,5.43-1.42,1.25-.95,1.87-2.24,1.87-3.85s-.62-2.73-1.87-3.54c-1.25-.81-3.06-1.21-5.43-1.21h-20.58v10.03Z"/>
      <path class="cls-2" d="m1027.88,362.06v-41h8.43v41h-8.43Z"/>
      <path class="cls-2" d="m1090.38,321.06l-17.94,41h-10.52l-18.13-41h9.32l14.07,33.53,14.01-33.53h9.19Z"/>
      <path class="cls-2" d="m1097.9,362.06v-41h8.43v41h-8.43Z"/>
      <path class="cls-2" d="m1165.08,321.06v41h-8.43l-30.48-29.79v29.79h-8.43v-41h8.43l30.48,30.02v-30.02h8.43Z"/>
      <path class="cls-2" d="m1223.86,340.62v21.44h-7.29s.15-4.29.25-6c.07-1.08.17-3.37.26-5.41-1.05,2.44-2.55,4.51-4.54,6.21-3.57,3.04-8.29,4.56-14.17,4.56-3.8,0-7.24-.44-10.3-1.33-3.06-.89-5.7-2.22-7.92-3.99s-3.92-3.97-5.1-6.59-1.77-5.64-1.77-9.06.62-6.54,1.87-9.22c1.25-2.68,3.02-4.95,5.32-6.81,2.3-1.86,5.05-3.26,8.24-4.21,3.19-.95,6.73-1.43,10.62-1.43,4.6,0,8.58.64,11.92,1.93,3.34,1.29,5.97,3.09,7.89,5.42.77.93,1.4,1.92,1.9,2.99l-7.33,3.87c-.53-1.1-1.24-2.09-2.11-2.96-1.25-1.25-2.88-2.22-4.91-2.92s-4.48-1.05-7.35-1.05c-3.68,0-6.81.59-9.41,1.78-2.6,1.18-4.57,2.85-5.93,5.01-1.35,2.15-2.03,4.69-2.03,7.6s.59,5.27,1.77,7.32c1.18,2.05,3.01,3.62,5.48,4.72s5.63,1.65,9.47,1.65c2.96,0,5.01-.47,6.3-.98,2.22-.89,3.83-1.86,5.35-3.2,1.12-.98,1.99-2.04,2.63-3.2h-13.59v-6.12h24.46Z"/>
    </g>
  </g>
</svg>