<?xml version="1.0" encoding="UTF-8"?>
<svg id="Layer_2" data-name="Layer 2" xmlns="http://www.w3.org/2000/svg" viewBox="0 0 1169.86 339.93">
  <defs>
    <style>
      .cls-1 {
        letter-spacing: .05em;
      }

      .cls-2 {
        letter-spacing: .05em;
      }

      .cls-3 {
        fill: #060606;
      }

      .cls-4 {
        fill: #fff;
      }

      .cls-5 {
        fill: #b2b3b9;
      }

      .cls-6 {
        fill: #ab141e;
      }

      .cls-7 {
        fill: gray;
      }

      .cls-8 {
        letter-spacing: .25em;
      }

      .cls-9 {
        letter-spacing: .3em;
      }

      .cls-10 {
        font-family: DigiSyneRegular, Digi-Syne;
        font-size: 66.12px;
      }

      .cls-11 {
        letter-spacing: .27em;
      }
    </style>
  </defs>
  <g id="Layer_1-2" data-name="Layer 1">
    <text class="cls-10" transform="translate(.46 211.07)"><tspan class="cls-1" x="0" y="0">ALIGn ON</tspan><tspan class="cls-11" x="401.9" y="0">	</tspan><tspan class="cls-8" x="433.11" y="0">	</tspan><tspan class="cls-9" x="462.87" y="0" xml:space="preserve">									</tspan><tspan class="cls-2" x="760.43" y="0" xml:space="preserve"> THe LINE </tspan></text>
    <g>
      <rect class="cls-7" x="582.82" y="300.88" width="7.15" height="35.13"/>
      <path class="cls-7" d="m402.45,321.67h8.83c.88,0,1.55.07,1.98.18.33.08.55.22.65.38.13.22.2.57.2,1.01v4.24h4.09v-4.39c0-1.03-.22-1.83-.67-2.4-.25-.32-.57-.58-.93-.8l-.05-.03.05-.03c.1-.07.18-.12.27-.18.52-.38.91-.87,1.2-1.46.28-.58.42-1.26.42-2.08,0-1.18-.27-2.16-.8-2.94-.53-.78-1.3-1.36-2.26-1.75-.91-.35-1.98-.53-3.19-.53h-13.92v16.6h4.11v-5.82h.03Zm11.43-4.11c-.33.33-.88.5-1.63.5h-9.8v-3.39h9.8c.77,0,1.33.15,1.68.43.32.27.47.63.47,1.15,0,.57-.17,1-.52,1.33v-.02Z"/>
      <path class="cls-7" d="m728.56,324.35l-.1.18c-.05.12-.12.23-.18.33-2.26,3.79-5.09,4.82-7.09,5.01-2.99.28-6.06-1.08-8.43-3.78h-.02v-.03c.91-1.06,1.71-2.1,2.43-3.13,3.88-5.51,6.67-14.04,2.89-21.49-1.88-3.74-5.04-5.67-8.63-5.31-3.98.4-7.32,3.46-8.5,7.8-1.91,6.42-.88,14.01,2.88,21.36.07.12.12.23.18.33l.18.35-.2.2c-.6.6-1.21,1.21-2.18,1.9-4.11,2.84-9.76,2.96-13.44.25-1.75-1.25-2.38-2.81-3.09-4.89-.35-1.03-.65-2.05-.87-2.79h0v-.03c1.96-6.09,2.3-12.99,2.38-19.55v-.22h-6.95l.03,1.1c.05,2.16.1,4.87-.13,6.87v.08l-.1-.15s-.08-.1-.12-.17c-.08-.13-.17-.25-.23-.37-3.24-4.86-9.25-7.87-16.05-8.07h-.7c-6.57,0-12.49,2.69-15.89,7.2-2.83,3.88-3.98,8.98-3.11,14.04.83,4.89,3.38,9.02,7.15,11.59,3.46,2.48,7.98,3.71,12.56,3.71,4.91,0,9.88-1.41,13.64-4.23,1.36-1.16,2.58-2.5,3.69-4.04l.03-.05.03.05c.2.42.4.8.62,1.16,3.53,5.76,12.53,9.25,21.48,5.17,2.13-.91,3.83-2.4,5.24-3.71h.05c3.89,3.84,8.98,5.74,13.96,5.16,5.01-.58,9.5-3.59,12.64-8.47l.12-.2-6.15-3.19h-.02Zm-20.79-18.61c.25-1.21.87-3.31,2.11-3.64.22-.05.4-.08.58-.08.98,0,1.53.77,2.11,2.03,1.2,3.11.65,6.9-.03,9.53-.62,2.16-1.51,3.99-3.14,6.35l-.03.05v-.05c-2.03-4.59-2.61-9.9-1.61-14.21l.02.02Zm-30.06,14.09h0c-1.16,3.24-2.81,5.79-4.92,7.62-3.21,2.41-7.35,2.78-9.55,2.78-.98,0-1.93-.07-2.83-.2-3.93-.57-7.14-2.98-8.82-6.62-1.8-3.89-1.55-8.52.68-12.06,2.16-3.08,6.15-4.91,10.68-4.91h.28c4.71.08,8.8,2.08,10.95,5.36,1.81,2.48,2.76,5.44,3.53,8h0v.03Z"/>
      <path class="cls-7" d="m378.98,326.73c1.4.68,3.08,1.03,4.96,1.03s3.56-.35,4.96-1.03c1.43-.68,2.55-1.7,3.34-2.98s1.2-2.81,1.2-4.57-.4-3.29-1.2-4.57c-.8-1.3-1.91-2.3-3.34-2.99-1.4-.67-3.06-1.01-4.96-1.01s-3.54.35-4.96,1.01c-1.45.7-2.58,1.7-3.36,2.99-.8,1.28-1.2,2.83-1.2,4.57s.4,3.29,1.2,4.57c.78,1.26,1.91,2.28,3.36,2.98Zm-.43-7.55c0-1.06.23-1.96.68-2.66.47-.7,1.08-1.23,1.86-1.6.83-.37,1.8-.55,2.84-.55s2.01.18,2.83.55c.78.37,1.38.88,1.83,1.58s.67,1.6.67,2.66-.23,2-.67,2.68c-.45.72-1.05,1.21-1.83,1.56-.8.37-1.75.55-2.83.55s-2.03-.18-2.84-.55h0c-.8-.35-1.4-.87-1.86-1.56-.45-.7-.68-1.6-.68-2.68v.02Z"/>
      <path class="cls-7" d="m1111.18,326.17h10.25v.05c-.2.47-1.05,1.68-1.55,2.11-1.56,1.31-3.01,2.15-4.82,2.74-2.08.68-3.81.93-6.39.93-3.46,0-6.32-.48-8.52-1.41-2.2-.95-3.86-2.31-4.92-4.06-1.06-1.76-1.6-3.89-1.6-6.3s.62-4.71,1.83-6.55c1.21-1.86,3.01-3.31,5.32-4.31,2.31-1.01,5.16-1.53,8.43-1.53,2.73,0,6.59.32,8.32.9,1.83.6,3.31,1.45,4.42,2.51.75.72,1.36,1.53,1.83,2.41l.1.18,6.44-3.39-.08-.18c-.42-.82-.91-1.58-1.56-2.31-1.71-2-4.09-3.56-7.05-4.64-3.09-1.15-8.45-1.66-12.41-1.66-3.48,0-6.67.42-9.5,1.23-2.83.8-5.31,2.01-7.35,3.61-2.08,1.61-3.68,3.58-4.77,5.84-1.11,2.28-1.68,4.94-1.68,7.9s.53,5.52,1.6,7.77c1.05,2.23,2.58,4.13,4.56,5.64,1.96,1.53,4.34,2.68,7.09,3.43,2.73.77,5.84,1.15,9.22,1.15,5.82,0,10.88-1.4,14.22-3.94,1.18-.9,2.6-2.76,3.29-4.33l.13.03v9.95h6.24v-19.65h-21.11v5.92l.03-.03Z"/>
      <polygon class="cls-7" points="355.79 321.22 368.73 321.22 368.73 317.58 355.79 317.58 355.79 314.63 370.64 314.63 370.64 310.89 351.68 310.89 351.68 327.49 355.79 327.49 355.79 321.22"/>
      <path class="cls-7" d="m1073.45,300.2c-4.81,2.66-8.9,6.29-11.86,10.5h-.03c-1.51-.75-3.11-1.46-4.89-2.2-7.69-3.03-15.85-5.11-25.68-6.59l-3.93-.48v36.08h7v-28.08h.03c2.79.47,5.59,1.01,8.3,1.63l1,.23c3.99.96,10.01,2.43,15.15,4.86h.03v.05c-.88,2.15-1.46,4.33-1.75,6.47-.4,3.28-.37,7.97,2.08,11.71,1.38,2.3,3.84,3.94,6.57,4.42.53.08,1.05.13,1.56.13,1.95,0,3.78-.65,5.29-1.88,3.13-2.63,4.08-6.79,2.83-12.34-1.06-4.56-4.51-7.89-6.45-9.45-.35-.28-.73-.58-1.2-.91h-.03l.08-.13c.17-.25.33-.47.5-.7,2.23-2.91,5.21-5.39,8.42-6.97l.18-.08-2.98-6.34-.2.1-.03-.03Zm-4.16,28.55v.28c0,1.08-.27,1.95-.77,2.46-.38.42-.88.63-1.51.65h-.08c-.7,0-1.28-.25-1.75-.75-1.43-1.55-1.41-5.12-1.15-7.87.12-1.08.33-2.23.67-3.43v-.05l.05.03c2.88,2.51,4.41,5.44,4.52,8.67h.02Z"/>
      <polygon class="cls-7" points="615.99 336.01 623.16 336.01 623.16 306.85 638.06 306.85 638.06 300.88 601.02 300.88 601.02 306.85 615.99 306.85 615.99 336.01"/>
      <path class="cls-7" d="m314.54,321.75c1.21.28,2.08.82,2.56,1.56.47.75.72,1.81.72,3.14v9.65h7.17v-10.71c0-2.13-.48-4.09-1.21-4.99-.52-.62-1.21-1.13-2.11-1.53l-.07-.03.07-.03c.28-.17.57-.33.85-.53,1.01-.72,1.83-1.66,2.41-2.83.6-1.2.83-2.25.83-3.86,0-2.45-.57-4.47-1.68-6.06-1.11-1.56-2.69-2.73-4.69-3.48-2-.73-4.39-1.11-7.09-1.11h-24.84v35.13h7.17v-14.79h14.69c2.28,0,4.06.15,5.26.43l-.03.03Zm2.41-7.2c-1.06.82-2.64,1.23-4.67,1.23h-17.67v-8.67h17.67c2.03,0,3.61.35,4.67,1.05,1.08.7,1.61,1.73,1.61,3.06,0,1.4-.55,2.51-1.61,3.33h0Z"/>
      <rect class="cls-7" x="1001.99" y="302.38" width="7.15" height="35.13"/>
      <polygon class="cls-7" points="245.35 321.42 269.82 321.42 269.82 315.78 245.35 315.78 245.35 306.95 272.78 306.95 272.78 300.98 238.18 300.98 238.18 336.11 272.83 336.11 272.83 330.14 245.35 330.14 245.35 321.42"/>
      <path class="cls-7" d="m980.51,302.51c-1.2,3.11-2.6,6.75-3.89,10.18-2.5,6.54-3.93,10.26-4.39,11.41l-.07.17c-1.13,2.73-2.53,6.12-5.76,6.12s-4.62-3.38-5.76-6.12l-.07-.17c-.55-1.31-2.48-6.37-4.52-11.74l-.93-2.45c-1.03-2.71-2.03-5.32-2.84-7.4l-.05-.13h-8.37l.13.3c2.1,4.52,7.84,18.23,7.89,18.35l.62,1.4c3.99,9.18,5.19,11.96,8.4,14.22,2.43,1.73,5.21,1.78,5.51,1.78s3.08-.05,5.51-1.78c3.21-2.26,4.41-5.04,8.38-14.19l.68-1.58c.96-2.31,5.89-14.06,7.82-18.2l.13-.3h-8.37s-.05.13-.05.13Z"/>
      <path class="cls-7" d="m546.9,317.12c-.5.87-.5,1.96.02,2.86.62,1.08,1.86,1.7,3.41,1.7h.68c1.61-.02,2.66-.02,4.23.4.96.25,1.71.88,2.08,1.75.4.9.35,2-.15,2.93-.95,1.8-3.14,2.96-6.69,3.58-4.09.7-8.2.32-11.59-1.08-2.25-.93-4.01-2.3-5.24-4.06-1.23-1.76-1.85-3.99-1.85-6.62s.62-4.91,1.85-6.69c1.23-1.8,2.99-3.18,5.26-4.09,2.23-.93,4.87-1.4,7.84-1.4,2.4,0,4.47.3,6.2.88,1.73.57,3.16,1.43,4.28,2.55.33.33.62.67.87,1l.12.15,6.25-3.58-.13-.18c-.15-.23-.33-.45-.5-.67l-.03-.05c-1.66-2-3.94-3.56-6.8-4.64-2.88-1.08-6.32-1.63-10.25-1.63-3.29,0-6.34.4-9.07,1.18-2.71.78-5.09,1.95-7.05,3.48-1.95,1.51-3.49,3.44-4.59,5.72-1.08,2.28-1.63,4.96-1.63,7.98s.55,5.71,1.63,7.97c1.1,2.26,2.64,4.18,4.59,5.67,1.96,1.5,4.33,2.66,7.05,3.43,2.69.77,5.67,1.15,8.83,1.15.4,0,.8,0,1.2-.02,2.63-.08,6.07-.33,9.23-1.56,5.12-2.01,9.78-6.37,7.44-12.58-.15-.42-.33-.78-.55-1.1l-.03-.05h6.47v-5.92h-20.1c-1.51,0-2.68.57-3.28,1.6l.02-.05Z"/>
      <polygon class="cls-7" points="205.33 336.11 212.48 336.11 212.48 306.95 227.39 306.95 227.39 300.98 190.36 300.98 190.36 306.95 205.33 306.95 205.33 336.11"/>
      <rect class="cls-7" x="923.8" y="314.64" width="7.15" height="22.87"/>
      <rect class="cls-7" x="503.7" y="300.88" width="7.15" height="35.13"/>
      <path class="cls-7" d="m906.94,323.46c-1.55-2.15-4.08-3.91-6.75-4.72h-.05l.03-.05c1.83-1.93,2.56-4.86,1.95-7.87-.67-3.18-2.64-5.76-5.31-6.9-2.58-1.26-5.77-1.51-10.1-1.51h-22.56v35.13h7.15v-14.64h17.1c11.48.25,14.81,3.48,14.86,14.42v.2h7.17v-.22c-.03-6.09-1.18-10.61-3.53-13.86l.03.02Zm-13.52-7.44c-1.68.96-4.82.95-7.12.95h-14.95v-8.43h14.47c2.91,0,6.12.05,7.4.57,1.05.43,1.65,1.18,1.85,2.28h0c.22,1.26.3,3.53-1.65,4.64Z"/>
      <polygon class="cls-7" points="152.45 311.11 172.32 336.04 172.39 336.11 179.56 336.11 179.56 300.98 172.41 300.98 172.41 326.18 152.53 301.06 152.46 300.98 145.28 300.98 145.28 336.11 152.45 336.11 152.45 311.11"/>
      <path class="cls-7" d="m444.23,300.88v35.13h24.22c3.74,0,6.97-.48,9.58-1.45,2.61-.95,4.74-2.26,6.35-3.91,1.6-1.65,2.79-3.56,3.53-5.69.73-2.13,1.11-4.38,1.11-6.67s-.33-4.54-1-6.64c-.68-2.1-1.81-3.98-3.36-5.56-1.56-1.61-3.69-2.89-6.32-3.83-2.61-.93-5.94-1.41-9.88-1.41h-24.22l-.02.02Zm30.58,7.05c1.71.62,3.09,1.45,4.13,2.51,1.01,1.06,1.75,2.28,2.18,3.61.43,1.35.65,2.78.65,4.26s-.22,2.93-.65,4.31-1.16,2.63-2.18,3.71c-1.03,1.1-2.41,1.96-4.13,2.6-1.71.63-3.91.95-6.52.95h-16.9v-22.86h16.9c2.61,0,4.81.32,6.52.91Z"/>
      <polygon class="cls-7" points="841.88 316.9 813.78 316.9 813.78 302.38 806.61 302.38 806.61 337.51 813.78 337.51 813.78 322.88 841.88 322.88 841.88 337.51 849.05 337.51 849.05 302.38 841.88 302.38 841.88 316.9"/>
      <polygon class="cls-7" points="102.11 321.42 127.66 321.42 127.66 315.78 102.11 315.78 102.11 306.95 130.62 306.95 130.62 300.98 94.94 300.98 94.94 336.11 130.69 336.11 130.69 330.14 102.11 330.14 102.11 321.42"/>
      <polygon class="cls-7" points="755.47 308.35 771.51 308.35 771.51 337.51 778.68 337.51 778.68 308.35 794.68 308.35 794.68 302.38 755.47 302.38 755.47 308.35"/>
      <path class="cls-7" d="m43.1,332.27c2.08,1.51,4.61,2.66,7.52,3.43,2.91.77,6.15,1.15,9.63,1.15,4.18,0,7.84-.53,10.9-1.58,3.03-1.05,5.46-2.58,7.22-4.56.5-.58.91-1.13,1.26-1.7l.12-.18-6.54-3.74-.1.17c-.47.75-1.05,1.43-1.71,2.06-1.18,1.1-2.71,1.95-4.54,2.51-1.81.58-4.03.87-6.59.87-3.14,0-5.96-.47-8.35-1.38-2.4-.93-4.28-2.3-5.57-4.08-1.31-1.78-1.98-4.01-1.98-6.6s.67-4.89,1.98-6.7c1.31-1.78,3.19-3.16,5.57-4.09,2.36-.91,5.17-1.38,8.33-1.38,2.53,0,4.76.3,6.62.87,1.85.58,3.38,1.43,4.56,2.55.63.58,1.16,1.25,1.61,2l.1.17,6.55-3.73-.12-.18c-.35-.55-.75-1.08-1.18-1.58-1.78-2.01-4.21-3.58-7.25-4.64-3.03-1.08-6.7-1.63-10.91-1.63-3.49,0-6.74.4-9.63,1.18-2.88.77-5.41,1.95-7.52,3.46-2.1,1.55-3.74,3.48-4.87,5.74-1.15,2.25-1.73,4.92-1.73,7.98s.58,5.72,1.73,7.95c1.15,2.25,2.78,4.16,4.87,5.69h.02Z"/>
      <path class="cls-7" d="m927.38,296.19c-2.63,0-4.76,2.13-4.76,4.76s2.13,4.76,4.76,4.76,4.76-2.13,4.76-4.76-2.13-4.76-4.76-4.76Z"/>
    </g>
    <path class="cls-3" d="m482.77,164.74c.06-9.34.19-18.68.16-28.01-.02-4.32-.3-8.64-.56-12.96-.12-1.97-1.8-2.05-3.18-2.06-3.09,0-6.17.34-9.26.27-2.8-.06-5.6-.38-8.38-.75-1.57-.21-3.1-.79-4.65-1.14-2.65-.61-3.74-2.13-3.75-4.99-.01-3.36-.29-6.72-.21-10.07.06-2.58.55-5.14.7-7.72.07-1.22-.34-2.45-.33-3.68.03-3.24.25-6.48.24-9.72,0-3.42-.29-6.83-.27-10.25,0-1.71.5-3.42.62-5.13.09-1.28-.05-2.57-.11-3.85-.09-2.12-.24-4.25-.29-6.37-.02-1.1.08-2.21.19-3.31.26-2.58,1.41-3.66,3.99-3.86,4.87-.38,9.74-.85,14.62-1.14,2.72-.16,5.47-.18,8.19.01,1.4.1,1.51-.52,1.52-1.5.02-3.7.05-7.39.04-11.09,0-5.41,0-10.83-.07-16.24-.05-3.3-.28-6.6-.35-9.9-.05-2.38.52-4.72-.3-7.14-.46-1.35,1.73-3.25,3.23-3.26,1.88-.02,3.85.6,5.57-.77.2-.16.82-.15.95.01,1.75,2.25,3.96.64,5.95.76,2.42.15,4.85.34,7.28.37,4.73.06,9.47.02,14.2.02,3.34,0,6.68-.04,10.02.02,4.14.08,8.29.34,12.43.35,3.49,0,6.99-.34,10.48-.33,4.48.01,8.96.22,13.44.36,4.01.12,8.01.34,12.02.36,12.79.08,25.59.1,38.38.13,2.41,0,4.82-.12,7.22-.09,7.68.11,15.36.3,23.04.41,3.52.05,7.04-.06,10.56,0,9.2.17,18.39.43,27.59.57,3.49.05,6.98-.21,10.47-.18,5.88.06,11.75.3,17.63.36,2.47.02,4.96-.17,7.43-.37,3.1-.24,6.2.98,6.86,3.06.37,1.14.34,2.43.35,3.66.04,4.39-.08,8.78.05,13.17.11,3.72.48,7.43.69,11.15.03.56-.32,1.13-.31,1.7.03,1.87-.9,3.84.6,5.57.18.2.24.67.13.93-1.48,3.62-.59,7.22-.02,10.85.16,1.05-.32,2.18-.29,3.27.16,5.62.39,11.25.61,16.87.06,1.56.18,3.12.27,4.69-.85,2.78-.21,3.9,1.96,3.43,2.69-.02,5.38.02,8.07-.07,3.59-.12,7.18-.37,10.78-.5.76-.03,1.68.02,2.24.42.68.48,1.44,1.35,1.51,2.11.29,3.17.29,6.36.47,9.54.14,2.54.5,5.07.57,7.61.08,3.04-.09,6.08-.06,9.12.02,2.35.2,4.71.28,7.06.14,4.14.28,8.28.37,12.43.05,2.27-.16,4.56.09,6.8.22,1.98-.44,3.15-2.3,3.4-2.27.31-4.57.35-6.86.48-1.5.09-3,.13-4.5.18-2.96.09-5.92.29-8.87.21-2.45-.07-2.66-.04-2.65,2.34.01,3.24.02,6.49.07,9.73,0,.36.24.72.38,1.08.09,1.21.17,2.41.26,3.62.01.26.03.52.04.78,0,1.2,0,2.4,0,3.6-.01,1.19-.02,2.38-.04,3.57,0,.81,0,1.61,0,2.42.03,2.99.05,5.97.11,8.96.12,6.34.25,12.69.39,19.03.12,5.32.28,10.65.37,15.97.02,1.1.36,1.52,1.5,1.51,5.51-.05,11.02.19,16.52-.09,6.99-.35,13.96.35,20.94.09,1.28-.05,2.76.4,2.86,2.04.11,1.93-.93,2.68-2.95,2.71-3.38.06-6.76.31-10.14.34-1.89.02-3.79-.34-5.68-.32-3.21.03-6.43.32-9.64.32-3.68,0-7.37-.22-11.05-.34-.59-.02-1.18,0-1.86,0,0,3.58-.03,7.05,0,10.51.09,8.26.23,16.53.28,24.79,0,.57-.51,1.14-.79,1.71-.76.31-1.5.8-2.29.89-1.2.14-2.44,0-3.66-.03-4.11,0-8.22.05-12.33-.03-2.89-.06-5.77-.37-8.66-.42-3.51-.07-7.02,0-10.53.02-.13,0-.31.06-.39,0-1.9-1.57-3.99-.22-5.98-.33-4.58-.26-9.19-.03-13.79-.08-9.49-.1-18.98-.25-28.47-.38-.92-.13-1.84-.35-2.77-.37-2.62-.06-5.24-.11-7.85-.04-1.91.05-3.82.29-5.73.45-3.39-.02-6.78,0-10.16-.07-4.18-.08-8.37-.15-12.55-.35-2.83-.14-5.65-.64-8.49-.72-2.83-.07-5.67.25-8.51.27-1.98.02-3.95-.22-5.93-.28-1.64-.04-3.28.04-4.92.02-.93,0-1.86-.12-2.8-.13-2-.01-3.99.05-5.99,0-4-.1-8.01-.31-12.01-.36-5.37-.07-10.73.06-16.1-.06-2.77-.06-5.52-.51-8.29-.72-.55-.04-1.15.15-1.68.36-2.99,1.16-5.99-.48-8.99.09-1.05.2-2.14.21-3.21.28-.4.03-.84.11-1.19-.02-2.48-.96-5.02-.47-7.56-.44-2.29.03-4.59-.24-6.89-.3-2.37-.06-4.73.03-7.1-.04-2-.06-4-.3-6-.34-1.09-.02-2.17.32-3.26.33-2.57.04-3.51-.77-3.5-3.24.02-4.34.25-8.68.29-13.02.05-5.91.01-11.82.01-17.95-4.54,0-8.68,0-12.83,0-.79,0-1.58-.02-2.37-.02-2.45,0-4.91-.02-7.36-.02-6.37,0-12.74,0-19.1,0-5.17,0-10.35-.12-15.51.04-2.1.06-2.25-1.56-2.79-2.7-.16-.34,1.09-1.4,1.74-2.08.84-.88,1.74-.81,2.67-.09.17.13.54.13.77.05,3.3-1.13,6.58.34,9.91.07,6.54-.54,13.11.07,19.67-.04,6.7-.11,13.41,0,20.12-.05,1.55-.01,3.09-.33,4.55-.5-.06-1.29-.12-2.58-.18-3.86,0-.4,0-.8,0-1.2-.01-.4-.02-.8-.03-1.19.04-1.13.1-2.26.1-3.39,0-1.8-.04-3.59-.06-5.39,0-.8,0-1.59,0-2.39,0-.27,0-.53,0-.8,0-2.66,0-5.31,0-7.97,0-.53,0-1.06,0-1.59,0-2.13,0-4.26,0-6.39.11-.04.22-.08.33-.13-.11-.08-.22-.17-.33-.25,0-.54,0-1.08,0-1.61.12-.09.23-.18.35-.27-.11-.05-.22-.09-.33-.14,0-2.25,0-4.5.01-6.75,0-.27,0-.54,0-.8-.03-.8-.06-1.6-.08-2.39.01-.26.03-.53.04-.79Zm5.15,47.86c39.62-.27,79.01.11,118.41-.31,39.85-.42,79.71-.09,119.56-.09-.04-.4-.1-.83-.11-1.25-.09-5.77-.12-11.54-.28-17.3-.14-5.19-.48-10.37-.63-15.56-.07-2.39.17-4.79.12-7.19-.09-4.27-.27-8.53-.45-12.8-.08-1.8-.37-3.59-.41-5.39-.08-3.58-.3-7.19.04-10.73.2-2-1.05-1.55-1.8-1.54-3.7.04-7.4.25-11.1.39-3.5.13-7.01.35-10.51.33-1.37,0-3.31-.12-3.96-.97-.84-1.09-.79-2.97-.87-4.52-.15-2.75-.08-5.51-.17-8.27-.05-1.36-.34-2.72-.37-4.09-.07-3.74-.06-7.49-.07-11.23-.01-2.87.09-5.75-.04-8.62-.14-3.08-.56-6.14-.73-9.22-.17-2.97-.3-5.95-.2-8.92.04-1.19.62-2.56,2.17-2.68,2.81-.22,5.64-.28,8.45-.45,2.96-.19,6.02.56,8.83-1.02.23-.13.69.14,1.04.24,2.7.78,5.35.46,8.21-.14-.21-3.3-.62-6.39-.52-9.46.08-2.5.15-4.96-.06-7.46-.21-2.5-.08-5.04-.15-7.55-.04-1.39-.26-2.78-.24-4.16.03-2.19.33-4.38.27-6.56-.14-4.66-.52-9.32-.66-13.99-.1-3.23.09-6.47.03-9.71-.08-4.13-.39-8.25-.39-12.38,0-1.66-.62-2.01-2.07-1.94-2.85.13-5.71.29-8.57.22-4.4-.1-8.79-.46-13.19-.55-2.36-.05-4.73.33-7.09.31-4.1-.04-8.19-.23-12.29-.37-2.98-.1-5.96-.28-8.94-.34-2.34-.05-4.69-.05-7.03.07-1.33.07-2.64.79-3.97-.07-.19-.12-.61.12-.92.16-.6.08-1.2.21-1.79.18-.5-.02-1-.37-1.49-.35-2.37.08-4.74.34-7.11.34-2.7,0-5.41-.29-8.11-.32-5.72-.06-11.44-.04-17.16-.05-5.63,0-11.27.04-16.9-.03-3.21-.04-6.42-.3-9.63-.38-2.86-.07-5.72,0-8.58-.03-2.41-.03-4.86-.42-7.22-.11-4.15.54-8.27-.44-12.41.08-1.2.15-2.46-.31-3.7-.32-3.91-.03-7.82.08-11.72.01-3.13-.05-6.27-.37-9.4-.41-3.29-.03-6.58.18-9.87.2-3.63.02-7.25-.06-10.88-.09-.64,0-1.29-.03-1.93-.01-1.86.06-3.73.24-5.59.19-4.6-.12-9.2-.42-13.8-.5-3.44-.06-6.88.12-10.32.19-.95.02-1.9,0-2.86,0,0,2.79-.03,5.2,0,7.61.07,4.82.19,9.65.27,14.47.06,3.54.09,7.09.11,10.63.01,3.13,0,6.25-.02,9.38,0,1.19.22,1.85,1.7,1.45,1.31-.35,2.7-.42,4.07-.45,3.78-.11,7.57-.03,11.35-.23,4.06-.21,8.1-.75,12.17-.96,3.29-.17,4.38.51,4.98,3.81.59,3.27.64,6.66.75,10,.07,2.07-.22,4.15-.29,6.22-.11,3.14-.02,6.3-.28,9.43-.24,2.94-.85,5.84-1.23,8.77-.1.77.24,1.64.02,2.36-.68,2.24-1.57,4.42-2.29,6.65-1.7,5.29-3.82,10.41-7.49,14.62-2,2.3-4.49,4.24-6.98,6.04-1.63,1.18-3.61,1.96-5.53,2.63-1.56.54-3.29.58-4.91.96-1.77.42-3.51.97-5.26,1.46v91.67Zm238.12,4.78c-3.23,0-6.16-.04-9.08,0-3.96.06-7.93.17-11.89.31-1.43.05-2.86.41-4.28.35-2.86-.13-5.71-.56-8.57-.67-3.07-.12-6.14,0-9.21,0-5.92,0-11.84.05-17.75-.02-6.46-.07-12.92-.55-19.36-.27-4.19.19-8.36.26-12.55.26-6.65,0-13.31,0-19.96,0-9.76,0-19.52-.02-29.28-.02-6.15,0-12.3.07-18.45,0-4.3-.04-8.59-.39-12.89-.34-3.74.05-7.46.56-11.2.69-2.01.07-4.04-.32-6.06-.35-4.57-.06-9.14-.01-13.7,0-10.57,0-21.14.05-31.71,0-1.63,0-2.2.42-2.16,2.13.2,8.39.34,16.77.37,25.16,0,1.8.68,2.35,2.31,2.25,2.82-.16,5.65-.38,8.48-.38,3.17,0,6.33.21,9.49.36,2.14.1,4.28.34,6.43.39,7.01.16,14.02.27,21.03.39,8.02.14,16.03.34,24.05.4,9.43.07,18.85,0,28.28.02,3.35.01,6.73-.07,10.05.29,3.36.36,6.67-.43,10.04.04,2.93.41,5.94.29,8.91.38,1.66.05,3.33.06,4.99.08.53,0,1.05,0,1.58-.03,2.14-.1,4.29-.32,6.43-.29,3.07.05,6.13.35,9.2.43,1.23.03,2.48-.42,3.71-.35,2.2.11,4.39.61,6.59.65,4.52.1,9.04-.03,13.57.02,2.69.03,5.38.33,8.08.36,7.87.07,15.74.01,23.61.08,6.07.05,12.13.24,18.19.31,4.44.05,8.88.01,13.55.01-.28-10.65-.57-21.56-.86-32.67Zm-246.7-100.52c2.29-.31,5.78-.7,9.24-1.26,1.97-.32,4.12-.52,5.77-1.48,2.14-1.24,3.59-3.47,4.36-5.86.9-2.8,2.39-5.44,2.11-8.62-.13-1.54,1.15-3.23.95-4.74-.2-1.53.42-2.11,1.44-2.41,1.72-.52,3.64-.5,5.27-1.2,2.25-.96,4.5-2.15,6.37-3.7.73-.6.43-2.44.61-3.72.05-.32.17-.63.21-.95.53-4.34,1.24-8.67,1.51-13.02.23-3.6-.12-7.22-.11-10.84,0-1.57.25-3.14.4-4.72.13-1.39-.98-1.96-1.9-1.93-2.88.09-5.76.46-8.64.74-5.3.52-10.59,1.25-15.9,1.53-6.79.36-13.6.29-20.39.52-3.78.13-7.55.45-11.31.76-.44.04-1.19.57-1.2.89-.1,3.47-.13,6.95-.06,10.42.04,2.09.38,4.18.42,6.27.06,4.17.02,8.35,0,12.53-.04,5.48-.09,10.96-.16,16.44-.05,3.78-.21,7.55-.19,11.32,0,.61.61,1.61,1.13,1.76,1.96.57,3.98,1.14,6,1.22,4.28.18,8.57.05,14.06.05Zm221.54,19.44c16.58-.53,32.75-1.05,48.98-1.57-.53-16.45-1.05-32.8-1.57-49.19-16.35.59-32.54,1.17-48.93,1.76.5,16.25,1.01,32.61,1.52,49.01Zm-188.26-40.8c-1.75.24-3.3.32-4.78.71-.6.16-1.34.92-1.47,1.52-.82,3.81-1.49,7.65-2.29,11.94,4.25-4.18,7.07-8.73,8.54-14.17Z"/>
    <path class="cls-5" d="m628.34,254.06c1.91-.16,3.82-.4,5.73-.45,2.62-.07,5.24-.02,7.85.04.92.02,1.84.24,2.77.37-.79.25-1.59.74-2.37.71-4.66-.16-9.32-.44-13.98-.68Z"/>
    <path class="cls-5" d="m482.81,197.03c.02,1.8.06,3.59.06,5.39,0,1.13-.07,2.26-.1,3.39-.22-.11-.63-.22-.63-.32.03-2.83-.85-5.74.67-8.45Z"/>
    <path class="cls-5" d="m730.08,81.22c-2.17.47-2.81-.65-1.96-3.43.65,1.14,1.3,2.29,1.96,3.43Z"/>
    <path class="cls-5" d="m724.83,255.25c1.22.02,2.45.16,3.66.03.79-.09,1.53-.58,2.29-.89-.98,1.9-4.45,2.4-5.95.86Z"/>
    <path class="cls-5" d="m729.93,156.78c-.09-1.21-.17-2.41-.26-3.62.09,1.21.17,2.41.26,3.62Z"/>
    <path class="cls-5" d="m729.97,161.16c0-1.2,0-2.4,0-3.6,0,1.2,0,2.4,0,3.6Z"/>
    <path class="cls-5" d="m729.93,167.15v-2.42c0,.81,0,1.61,0,2.42Z"/>
    <path class="cls-5" d="m482.78,184.28c0,.53,0,1.06,0,1.59,0-.53,0-1.06,0-1.59Z"/>
    <path class="cls-5" d="m482.79,207c0,.4,0,.8,0,1.2,0-.4,0-.8,0-1.2Z"/>
    <path class="cls-5" d="m482.77,164.74c-.01.26-.03.53-.04.79.01-.26.03-.53.04-.79Z"/>
    <path class="cls-5" d="m482.81,167.93c0,.27,0,.54,0,.8,0-.27,0-.54,0-.8Z"/>
    <path class="cls-5" d="m482.8,193.85v.8c0-.27,0-.53,0-.8Z"/>
    <path class="cls-5" d="m482.8,175.49c.11.05.22.09.33.14-.12.09-.23.18-.35.27,0-.14.01-.27.02-.41Z"/>
    <path class="cls-5" d="m482.78,177.51c.11.08.22.17.33.25-.11.04-.22.08-.33.13-.07-.13-.08-.25,0-.38Z"/>
    <path class="cls-5" d="m487.92,212.61v-91.67c1.75-.49,3.49-1.05,5.26-1.46,1.62-.38,3.35-.42,4.91-.96,1.92-.67,3.9-1.45,5.53-2.63,2.49-1.8,4.98-3.74,6.98-6.04,3.67-4.21,5.79-9.34,7.49-14.62.72-2.23,1.62-4.41,2.29-6.65.22-.72-.12-1.58-.02-2.36.38-2.93.99-5.84,1.23-8.77.26-3.13.17-6.29.28-9.43.07-2.08.36-4.15.29-6.22-.11-3.34-.16-6.73-.75-10-.6-3.3-1.69-3.98-4.98-3.81-4.06.21-8.1.75-12.17.96-3.78.2-7.57.12-11.35.23-1.36.04-2.76.11-4.07.45-1.49.39-1.71-.26-1.7-1.45.02-3.13.04-6.25.02-9.38-.02-3.54-.05-7.09-.11-10.63-.08-4.82-.2-9.65-.27-14.47-.04-2.41,0-4.82,0-7.61.96,0,1.91.02,2.86,0,3.44-.06,6.88-.24,10.32-.19,4.6.08,9.2.38,13.8.5,1.86.05,3.73-.13,5.59-.19.64-.02,1.29,0,1.93.01,3.63.03,7.26.11,10.88.09,3.29-.02,6.58-.23,9.87-.2,3.13.03,6.27.35,9.4.41,3.91.07,7.82-.05,11.72-.01,1.24.01,2.5.48,3.7.32,4.14-.52,8.26.46,12.41-.08,2.36-.31,4.81.08,7.22.11,2.86.03,5.72-.04,8.58.03,3.21.08,6.42.34,9.63.38,5.63.07,11.27.02,16.9.03,5.72,0,11.44-.01,17.16.05,2.71.03,5.41.31,8.11.32,2.37,0,4.74-.26,7.11-.34.49-.02.99.33,1.49.35.59.03,1.2-.1,1.79-.18.32-.04.73-.28.92-.16,1.33.86,2.64.14,3.97.07,2.34-.12,4.69-.12,7.03-.07,2.98.06,5.96.24,8.94.34,4.1.14,8.19.33,12.29.37,2.36.02,4.73-.36,7.09-.31,4.4.1,8.79.45,13.19.55,2.85.07,5.71-.09,8.57-.22,1.45-.07,2.07.29,2.07,1.94,0,4.13.31,8.25.39,12.38.06,3.24-.13,6.48-.03,9.71.15,4.66.52,9.32.66,13.99.07,2.18-.24,4.37-.27,6.56-.02,1.39.2,2.77.24,4.16.07,2.52-.05,5.05.15,7.55.21,2.5.13,4.96.06,7.46-.1,3.07.32,6.16.52,9.46-2.86.6-5.51.92-8.21.14-.35-.1-.81-.37-1.04-.24-2.81,1.58-5.88.83-8.83,1.02-2.82.18-5.64.23-8.45.45-1.54.12-2.13,1.49-2.17,2.68-.1,2.97.03,5.95.2,8.92.17,3.08.59,6.14.73,9.22.13,2.87.03,5.74.04,8.62.01,3.74,0,7.49.07,11.23.03,1.36.32,2.72.37,4.09.09,2.76.02,5.52.17,8.27.08,1.55.03,3.43.87,4.52.66.85,2.59.96,3.96.97,3.5.02,7.01-.19,10.51-.33,3.7-.14,7.4-.35,11.1-.39.75,0,1.99-.46,1.8,1.54-.35,3.55-.12,7.15-.04,10.73.04,1.8.33,3.59.41,5.39.19,4.27.37,8.53.45,12.8.05,2.39-.19,4.79-.12,7.19.15,5.19.49,10.37.63,15.56.16,5.77.19,11.54.28,17.3,0,.43.07.86.11,1.25-39.85,0-79.71-.33-119.56.09-39.4.42-78.8.04-118.41.31Z"/>
    <path class="cls-5" d="m726.03,217.39c.29,11.11.58,22.02.86,32.67-4.67,0-9.11.04-13.55-.01-6.07-.07-12.13-.26-18.19-.31-7.87-.07-15.74-.02-23.61-.08-2.69-.02-5.38-.32-8.08-.36-4.52-.06-9.05.08-13.57-.02-2.2-.05-4.39-.54-6.59-.65-1.23-.06-2.48.39-3.71.35-3.07-.08-6.13-.37-9.2-.43-2.14-.04-4.29.19-6.43.29-.53.02-1.05.03-1.58.03-1.66-.02-3.33-.03-4.99-.08-2.97-.09-5.98.04-8.91-.38-3.37-.47-6.68.32-10.04-.04-3.32-.35-6.7-.28-10.05-.29-9.43-.03-18.85.05-28.28-.02-8.02-.06-16.03-.26-24.05-.4-7.01-.12-14.02-.23-21.03-.39-2.14-.05-4.28-.28-6.43-.39-3.16-.15-6.33-.36-9.49-.36-2.83,0-5.65.22-8.48.38-1.63.09-2.3-.46-2.31-2.25-.03-8.39-.17-16.78-.37-25.16-.04-1.7.53-2.14,2.16-2.13,10.57.05,21.14.02,31.71,0,4.57,0,9.14-.05,13.7,0,2.02.02,4.05.42,6.06.35,3.74-.13,7.47-.64,11.2-.69,4.29-.06,8.59.3,12.89.34,6.15.06,12.3,0,18.45,0,9.76,0,19.52.01,29.28.02,6.65,0,13.31,0,19.96,0,4.18,0,8.36-.07,12.55-.26,6.44-.29,12.9.19,19.36.27,5.92.07,11.83.02,17.75.02,3.07,0,6.14-.12,9.21,0,2.86.11,5.71.54,8.57.67,1.42.06,2.85-.3,4.28-.35,3.96-.14,7.93-.25,11.89-.31,2.92-.05,5.85,0,9.08,0Z"/>
    <path class="cls-4" d="m479.33,116.87c-5.49,0-9.78.12-14.06-.05-2.02-.08-4.05-.65-6-1.22-.52-.15-1.13-1.15-1.13-1.76-.02-3.77.14-7.55.19-11.32.08-5.48.13-10.96.16-16.44.03-4.18.07-8.35,0-12.53-.03-2.09-.38-4.18-.42-6.27-.07-3.47-.03-6.95.06-10.42,0-.32.76-.86,1.2-.89,3.77-.31,7.54-.63,11.31-.76,6.8-.23,13.6-.16,20.39-.52,5.31-.28,10.6-1.01,15.9-1.53,2.88-.28,5.75-.65,8.64-.74.92-.03,2.03.54,1.9,1.93-.14,1.57-.39,3.14-.4,4.72,0,3.61.34,7.24.11,10.84-.27,4.36-.98,8.68-1.51,13.02-.04.32-.17.63-.21.95-.18,1.27.11,3.11-.61,3.72-1.87,1.55-4.11,2.74-6.37,3.7-1.63.7-3.55.68-5.27,1.2-1.02.31-1.64.88-1.44,2.41.2,1.51-1.08,3.2-.95,4.74.28,3.19-1.21,5.82-2.11,8.62-.77,2.39-2.22,4.62-4.36,5.86-1.66.96-3.81,1.16-5.77,1.48-3.46.56-6.95.96-9.24,1.26Z"/>
    <path class="cls-6" d="m700.87,136.31c-.51-16.4-1.02-32.76-1.52-49.01,16.39-.59,32.58-1.17,48.93-1.76.52,16.4,1.05,32.75,1.57,49.19-16.23.52-32.4,1.04-48.98,1.57Z"/>
    <path class="cls-5" d="m512.61,95.51c-1.47,5.44-4.3,9.99-8.54,14.17.8-4.28,1.47-8.13,2.29-11.94.13-.6.87-1.36,1.47-1.52,1.48-.39,3.03-.47,4.78-.71Z"/>
  </g>
</svg>